<svg xmlns="http://www.w3.org/2000/svg" style="border: 0 !important; clip: rect(0 0 0 0) !important; height: 1px !important; margin: -1px !important; overflow: hidden !important; padding: 0 !important; position: absolute !important; width: 1px !important;" class="root-svg-symbols-element">
  <defs>
      <clipPath id="clip0_83_9118"><path d="M0 0H24V13H0z"/></clipPath>
<clipPath id="clip0_83_9118"><path fill="#fff" d="M0 0H24V13H0z"/></clipPath>
<clipPath id="clip0_83_9168"><path fill="#fff" d="M0 0H138V60H0z"/></clipPath>
<clipPath id="clip0_72_3820"><path fill="#fff" d="M0 0H138V60H0z"/></clipPath>
  </defs>
    <symbol id="19296707391540882614" viewBox="0 0 512 512">
      <path d="M352 128.4L319.7 96 160 256 160 256 160 256 319.7 416 352 383.6 224.7 256z"/>
    </symbol>
    <symbol id="arrow" viewBox="0 0 24 13">
      <g clip-path="url(#clip0_83_9118)"><path d="M23.4947 6.27391C23.4316 6.27391 19.9579 4.57826 16.4842 1.92405e-07L15.9789 0.339131C18.4421 3.61739 20.9053 5.42609 22.2316 6.27391L-7.32297e-08 6.27391L-7.98269e-08 6.83913L22.2316 6.83913C20.9053 7.63043 18.4421 9.43913 15.9789 12.7739L16.4842 13.113C19.9579 8.53478 23.4316 6.89565 23.4947 6.83913L24.0632 6.61304L23.4947 6.27391Z"/></g>
    </symbol>
    <symbol id="arrowsvg" viewBox="0 0 24 13">
      <g clip-path="url(#clip0_83_9118)"><path d="M23.4947 6.27391C23.4316 6.27391 19.9579 4.57826 16.4842 1.92405e-07L15.9789 0.339131C18.4421 3.61739 20.9053 5.42609 22.2316 6.27391L-7.32297e-08 6.27391L-7.98269e-08 6.83913L22.2316 6.83913C20.9053 7.63043 18.4421 9.43913 15.9789 12.7739L16.4842 13.113C19.9579 8.53478 23.4316 6.89565 23.4947 6.83913L24.0632 6.61304L23.4947 6.27391Z" fill="#BAA174"/></g>
    </symbol>
    <symbol id="bac-k" viewBox="0 0 512 512">
      <path d="M352 128.4L319.7 96 160 256 160 256 160 256 319.7 416 352 383.6 224.7 256z"/>
    </symbol>
    <symbol id="back" viewBox="0 0 512 512">
      <path d="M352 128.4L319.7 96 160 256 160 256 160 256 319.7 416 352 383.6 224.7 256z"/>
    </symbol>
    <symbol id="close-btn" viewBox="0 0 12 12">
      <path stroke="#fff" d="M0.492 10.815L10.661 0.646"/><path stroke="#fff" d="M0.354 0.664L10.522 10.832"/>
    </symbol>
    <symbol id="close" viewBox="0 0 12 12">
      <path d="M1 11L11 1M1 1L11 11" stroke="#0A2A3C" stroke-width="2"/>
    </symbol>
    <symbol id="download" viewBox="0 0 21 31">
      <path d="M8.43077 24.2954C8.43077 24.2171 10.4997 19.911 16.0859 15.605L15.6721 14.9786C11.6721 18.032 9.46525 21.0854 8.43077 22.7295L8.43077 3L7.74111 3L7.74111 22.7295C6.77559 21.0854 4.5687 18.032 0.499731 14.9786L0.0859379 15.605C5.67214 19.911 7.67214 24.2171 7.74111 24.2954L8.01697 25L8.43077 24.2954Z" fill="#BAA174"/><path fill-rule="evenodd" clip-rule="evenodd" d="M0.0859375 25H0.847842V27.25H15.324V25H16.0859V28H0.0859375V25Z" fill="#BAA174"/>
    </symbol>
    <symbol id="logo-black" viewBox="0 0 138 60">
      <g clip-path="url(#clip0_83_9168)" fill="#959595"><path d="M10.1389 48.2188H5.52375V59.9096H4.62149V48.2188H0.00634766V47.4072H10.1389V48.2188Z"/><path d="M17.0649 59.0725C17.8957 59.0725 18.5838 58.9115 19.129 58.5959C19.6743 58.2803 20.1092 57.868 20.4207 57.3527C20.7388 56.8374 20.9595 56.2513 21.0958 55.6007C21.2256 54.9437 21.297 54.2867 21.297 53.6168V47.356H22.1798V53.6168C22.1798 54.4477 22.089 55.24 21.9137 56.0001C21.7319 56.7601 21.4463 57.43 21.0439 58.0097C20.6414 58.5894 20.1157 59.0468 19.4731 59.3882C18.8304 59.7295 18.032 59.897 17.0908 59.897C16.1107 59.897 15.2928 59.7167 14.6372 59.3624C13.9816 59.0081 13.4558 58.5315 13.0599 57.9389C12.6639 57.3463 12.3783 56.6764 12.216 55.9292C12.0473 55.182 11.9629 54.4091 11.9629 53.6168V47.356H12.8457V53.6168C12.8457 54.306 12.9106 54.9824 13.0469 55.6329C13.1767 56.2899 13.4104 56.8696 13.735 57.3785C14.066 57.8874 14.4944 58.2996 15.0397 58.6088C15.5719 58.918 16.247 59.0725 17.0649 59.0725Z"/><path d="M25.5098 59.9096V47.4072H30.7481C31.2803 47.4072 31.7736 47.5167 32.2215 47.7422C32.6694 47.9676 33.0589 48.2639 33.3834 48.6311C33.708 48.9982 33.9611 49.4169 34.1494 49.8807C34.3311 50.3444 34.422 50.8146 34.422 51.2784C34.422 51.7357 34.3506 52.1802 34.2078 52.6053C34.065 53.0369 33.8638 53.4169 33.6041 53.7583C33.3445 54.0997 33.0329 54.3831 32.6629 54.6021C32.2929 54.8275 31.897 54.9692 31.4556 55.0401L34.5973 59.9032H33.5522L30.5014 55.1818H26.4185V59.9032H25.5098V59.9096ZM26.4185 54.3637H30.8389C31.2414 54.3637 31.6049 54.2736 31.9424 54.0997C32.2735 53.9257 32.5591 53.6939 32.7927 53.404C33.0264 53.1141 33.2082 52.7856 33.3315 52.4185C33.4548 52.0513 33.5197 51.6713 33.5197 51.2848C33.5197 50.8855 33.4483 50.499 33.299 50.1319C33.1497 49.7647 32.9485 49.4362 32.6954 49.1528C32.4422 48.8694 32.1436 48.6439 31.8061 48.4765C31.4686 48.309 31.1051 48.2188 30.7156 48.2188H26.4185V54.3637Z"/><path d="M46.3135 57.9647C45.0932 59.3238 43.6781 60.0001 42.0748 60.0001C41.2245 60.0001 40.4326 59.8197 39.7056 59.4526C38.9786 59.0919 38.3555 58.6088 37.8362 58.0097C37.3169 57.4107 36.9079 56.7344 36.6094 55.9743C36.3108 55.2142 36.168 54.4413 36.168 53.6555C36.168 52.8374 36.3108 52.0452 36.6029 51.2851C36.895 50.525 37.2974 49.8487 37.8102 49.269C38.323 48.6828 38.9397 48.2191 39.6472 47.8713C40.3547 47.5234 41.1336 47.356 41.971 47.356C42.6006 47.356 43.1653 47.4204 43.6651 47.5556C44.165 47.6909 44.6193 47.8777 45.0153 48.116C45.4112 48.3543 45.7553 48.6442 46.0474 48.9791C46.3395 49.3141 46.5796 49.6812 46.7809 50.0742L46.0344 50.5122C45.606 49.6941 45.0413 49.1015 44.3402 48.7279C43.6392 48.3608 42.8408 48.174 41.9515 48.174C41.205 48.174 40.53 48.335 39.9263 48.6506C39.3226 48.9663 38.8098 49.3849 38.3814 49.9002C37.953 50.4155 37.6285 51.0017 37.4078 51.6587C37.1806 52.3157 37.0702 52.9856 37.0702 53.6748C37.0702 54.4091 37.2 55.1112 37.4597 55.7746C37.7193 56.4381 38.0763 57.0178 38.5307 57.5202C38.9851 58.0226 39.5238 58.422 40.134 58.7247C40.7507 59.021 41.4127 59.1756 42.1203 59.1756C42.8862 59.1756 43.6197 59.0017 44.3143 58.6474C45.0088 58.2932 45.6709 57.7392 46.3135 56.9791V54.5766H43.4574V53.8551H47.0989V59.9099H46.32V57.9647H46.3135Z"/><path d="M54.473 59.8971C53.5967 59.8971 52.7983 59.7168 52.0778 59.3561C51.3573 58.9953 50.7341 58.5251 50.2148 57.9454C49.6956 57.3657 49.2931 56.6958 49.0075 55.9422C48.7219 55.1886 48.5791 54.4156 48.5791 53.6234C48.5791 52.7989 48.7284 52.0066 49.0335 51.253C49.3321 50.4994 49.7475 49.8295 50.2733 49.2498C50.799 48.6701 51.4222 48.2063 52.1427 47.8649C52.8632 47.5235 53.6421 47.3496 54.486 47.3496C55.3623 47.3496 56.1607 47.53 56.8942 47.8971C57.6212 48.2643 58.2443 48.7409 58.7571 49.3335C59.2699 49.9261 59.6723 50.596 59.9579 51.3432C60.2435 52.0904 60.3863 52.8504 60.3863 53.6169C60.3863 54.4543 60.237 55.2466 59.932 56.0002C59.6334 56.7538 59.218 57.4172 58.6922 57.997C58.1664 58.5702 57.5433 59.0275 56.8228 59.3754C56.0958 59.7296 55.3103 59.8971 54.473 59.8971ZM49.4814 53.6298C49.4814 54.3383 49.6047 55.0211 49.8449 55.6781C50.085 56.3351 50.4291 56.9148 50.8769 57.4172C51.3183 57.9197 51.8506 58.3255 52.4672 58.6282C53.0839 58.9309 53.759 59.0791 54.4925 59.0791C55.2519 59.0791 55.9335 58.9245 56.5436 58.6089C57.1538 58.2933 57.6731 57.881 58.108 57.3657C58.5429 56.8504 58.8739 56.2643 59.1076 55.6137C59.3413 54.9631 59.4646 54.2997 59.4646 53.6298C59.4646 52.9213 59.3413 52.2385 59.0946 51.5815C58.848 50.9245 58.4974 50.3448 58.0561 49.8424C57.6147 49.3399 57.0889 48.9342 56.4852 48.6314C55.8815 48.3287 55.2195 48.1805 54.4989 48.1805C53.7395 48.1805 53.0579 48.3351 52.4413 48.6507C51.8246 48.9664 51.2989 49.3786 50.864 49.8939C50.4291 50.4092 50.0915 50.9953 49.8513 51.6459C49.6047 52.29 49.4814 52.9535 49.4814 53.6298Z"/><path d="M62.8012 47.4072L67.2022 54.3315L71.6226 47.4072H72.6352L67.663 55.1947V59.9096H66.7608V55.156L61.8081 47.4072H62.8012Z"/><path d="M78.5615 47.4072H79.3404L84.6631 59.9096H83.7024L81.9433 55.7873H75.9261L74.167 59.9096H73.1934L78.5615 47.4072ZM81.7031 55.053L78.9509 48.5022L76.1468 55.053H81.7031Z"/><path d="M86.1753 59.9096V47.4072H87.0776V54.995L94.4254 47.4072H95.477L90.2387 52.8823L95.7431 59.9096H94.711L89.6545 53.4298L87.0776 56.0578V59.9096H86.1753Z"/><path d="M112.075 47.4072V59.9096H111.166V53.9257H103.214V59.9096H102.312V47.4072H103.214V53.1141H111.166V47.4072H112.075Z"/><path d="M116.262 47.4072H115.359V59.9096H116.262V47.4072Z"/><path d="M119.565 59.9096V47.4072H120.468V59.1045H127.991V59.9096H119.565Z"/><path d="M129.568 59.9096V47.4072H130.477V59.1045H138V59.9096H129.568Z"/><path d="M130.912 15.9871C129.237 15.8712 127.549 15.8196 125.848 15.8196C125.595 15.8196 125.336 15.8196 125.083 15.8261L112.555 6.2029L102.961 13.5652L108.53 17.8422L118.63 25.591C117.196 25.5072 115.748 25.4686 114.294 25.4686C113.451 25.4686 112.613 25.4815 111.782 25.5072L103.571 19.2077L99.5856 16.1481L96.7815 13.9903L85.2793 5.16586L62.1257 22.9372C59.393 23.1304 56.7057 23.4718 54.0703 23.9485L85.2858 0L100.157 11.4138L112.555 1.90016L130.912 15.9871Z"/><path d="M22.0631 22.5766C22.0631 16.7473 17.3051 12.0259 11.4307 12.0259C5.55629 12.0259 0.79834 16.7473 0.79834 22.5766C0.79834 28.4059 5.55629 33.1273 11.4307 33.1273C17.3051 33.1273 22.0631 28.4059 22.0631 22.5766Z"/><path d="M59.3153 8.99854C51.9609 24.2642 36.1552 34.8278 17.8374 34.8278C17.1169 34.8278 16.3964 34.8085 15.6823 34.7763C15.1501 34.7505 14.6243 34.7183 14.0985 34.6797C10.8011 34.3319 7.77623 33.0823 5.27068 31.1886C5.26419 31.1821 5.2577 31.1821 5.25121 31.1757C4.81631 30.8472 4.40088 30.4993 3.99843 30.1322L3.99194 30.1257C2.59636 28.7731 1.57727 27.0404 1.09693 25.0952C0.902197 24.29 0.79834 23.4526 0.79834 22.5895C0.79834 20.6507 1.32412 18.8343 2.24585 17.2755C4.41386 23.91 10.457 28.8246 17.7335 29.3786C17.74 29.3786 17.74 29.3786 17.7465 29.3786C17.8958 29.3915 18.0451 29.3979 18.2009 29.4043C18.2139 29.4043 18.2204 29.4043 18.2333 29.4043C18.6488 29.4301 19.0707 29.443 19.4926 29.4559C19.9535 29.4687 20.4208 29.4752 20.8882 29.4752C23.7897 29.4752 26.6328 29.2111 29.385 28.7022C41.8868 26.4092 52.6035 19.1048 59.3153 8.99854Z"/><path d="M115.859 40.0324C115.801 41.7393 114.405 43.1306 112.685 43.195C111.867 43.2272 111.108 42.9631 110.517 42.4994C110.491 42.4801 110.465 42.4607 110.439 42.4414C102.799 36.29 93.0234 32.5606 82.3586 32.4575H82.3456C74.1539 32.2772 69.9737 32.4575 65.0599 33.1596C60.8213 33.7651 56.0373 34.7506 47.6639 36.2192C39.1411 37.72 35.0972 38.6282 33.442 38.8923C32.7344 39.0082 32.0269 39.1306 31.3129 39.253C10.0611 42.9503 0.116839 37.282 0 37.2111C0.12333 37.2562 11.9111 41.1854 28.34 37.6234C28.34 37.6234 34.9154 36.4317 45.5023 33.501C54.0186 31.1435 65.5857 28.5799 71.908 28.0453C71.908 28.0453 82.6961 27.1242 89.6351 27.8907C98.9498 28.4962 107.486 31.8778 114.379 37.1918C114.444 37.2433 114.509 37.2884 114.574 37.34C114.82 37.5332 115.048 37.7522 115.236 38.0098C115.651 38.5702 115.885 39.2723 115.859 40.0324Z"/></g>
    </symbol>
    <symbol id="logo" viewBox="0 0 138 60">
      <g clip-path="url(#clip0_72_3820)"><path d="M10.1389 48.219H5.52375V59.9098H4.62149V48.219H0.00634766V47.4074H10.1389V48.219Z" fill="#fff"/><path d="M17.0649 59.0725C17.8957 59.0725 18.5838 58.9115 19.129 58.5958C19.6743 58.2802 20.1092 57.868 20.4207 57.3527C20.7388 56.8374 20.9595 56.2512 21.0958 55.6007C21.2256 54.9437 21.297 54.2867 21.297 53.6168V47.3559H22.1798V53.6168C22.1798 54.4477 22.089 55.24 21.9137 56C21.7319 56.7601 21.4463 57.43 21.0439 58.0097C20.6414 58.5894 20.1157 59.0467 19.4731 59.3881C18.8304 59.7295 18.032 59.897 17.0908 59.897C16.1107 59.897 15.2928 59.7166 14.6372 59.3623C13.9816 59.0081 13.4558 58.5314 13.0599 57.9388C12.6639 57.3462 12.3783 56.6763 12.216 55.9292C12.0473 55.182 11.9629 54.409 11.9629 53.6168V47.3559H12.8457V53.6168C12.8457 54.306 12.9106 54.9823 13.0469 55.6329C13.1767 56.2899 13.4104 56.8696 13.735 57.3784C14.066 57.8873 14.4944 58.2995 15.0397 58.6087C15.5719 58.9179 16.247 59.0725 17.0649 59.0725Z" fill="#fff"/><path d="M25.5098 59.9098V47.4074H30.7481C31.2803 47.4074 31.7736 47.5169 32.2215 47.7424C32.6694 47.9678 33.0589 48.2641 33.3834 48.6312C33.708 48.9984 33.9611 49.4171 34.1494 49.8808C34.3311 50.3446 34.422 50.8148 34.422 51.2786C34.422 51.7359 34.3506 52.1804 34.2078 52.6055C34.065 53.037 33.8638 53.4171 33.6041 53.7585C33.3445 54.0998 33.0329 54.3833 32.6629 54.6023C32.2929 54.8277 31.897 54.9694 31.4556 55.0403L34.5973 59.9034H33.5522L30.5014 55.182H26.4185V59.9034H25.5098V59.9098ZM26.4185 54.3639H30.8389C31.2414 54.3639 31.6049 54.2738 31.9424 54.0998C32.2735 53.9259 32.5591 53.694 32.7927 53.4042C33.0264 53.1143 33.2082 52.7858 33.3315 52.4187C33.4548 52.0515 33.5197 51.6715 33.5197 51.285C33.5197 50.8857 33.4483 50.4992 33.299 50.132C33.1497 49.7649 32.9485 49.4364 32.6954 49.153C32.4422 48.8696 32.1436 48.6441 31.8061 48.4767C31.4686 48.3092 31.1051 48.219 30.7156 48.219H26.4185V54.3639Z" fill="#fff"/><path d="M46.3135 57.9646C45.0932 59.3237 43.6781 60 42.0748 60C41.2245 60 40.4326 59.8197 39.7056 59.4525C38.9786 59.0918 38.3555 58.6087 37.8362 58.0097C37.3169 57.4106 36.9079 56.7343 36.6094 55.9743C36.3108 55.2142 36.168 54.4412 36.168 53.6554C36.168 52.8374 36.3108 52.0451 36.6029 51.285C36.895 50.525 37.2974 49.8487 37.8102 49.2689C38.323 48.6828 38.9397 48.219 39.6472 47.8712C40.3547 47.5234 41.1336 47.3559 41.971 47.3559C42.6006 47.3559 43.1653 47.4203 43.6651 47.5556C44.165 47.6908 44.6193 47.8776 45.0153 48.116C45.4112 48.3543 45.7553 48.6441 46.0474 48.9791C46.3395 49.314 46.5796 49.6812 46.7809 50.0741L46.0344 50.5121C45.606 49.6941 45.0413 49.1015 44.3402 48.7279C43.6392 48.3607 42.8408 48.1739 41.9515 48.1739C41.205 48.1739 40.53 48.335 39.9263 48.6506C39.3226 48.9662 38.8098 49.3849 38.3814 49.9002C37.953 50.4155 37.6285 51.0016 37.4078 51.6586C37.1806 52.3156 37.0702 52.9855 37.0702 53.6747C37.0702 54.409 37.2 55.1111 37.4597 55.7746C37.7193 56.438 38.0763 57.0177 38.5307 57.5201C38.9851 58.0226 39.5238 58.4219 40.134 58.7247C40.7507 59.021 41.4127 59.1755 42.1203 59.1755C42.8862 59.1755 43.6197 59.0016 44.3143 58.6474C45.0088 58.2931 45.6709 57.7391 46.3135 56.9791V54.5765H43.4574V53.8551H47.0989V59.9098H46.32V57.9646H46.3135Z" fill="#fff"/><path d="M54.473 59.8969C53.5967 59.8969 52.7983 59.7166 52.0778 59.3559C51.3573 58.9952 50.7341 58.5249 50.2148 57.9452C49.6956 57.3655 49.2931 56.6956 49.0075 55.942C48.7219 55.1884 48.5791 54.4155 48.5791 53.6232C48.5791 52.7987 48.7284 52.0064 49.0335 51.2528C49.3321 50.4992 49.7475 49.8293 50.2733 49.2496C50.799 48.6699 51.4222 48.2061 52.1427 47.8647C52.8632 47.5233 53.6421 47.3494 54.486 47.3494C55.3623 47.3494 56.1607 47.5298 56.8942 47.8969C57.6212 48.2641 58.2443 48.7407 58.7571 49.3333C59.2699 49.9259 59.6723 50.5958 59.9579 51.343C60.2435 52.0902 60.3863 52.8502 60.3863 53.6167C60.3863 54.4541 60.237 55.2464 59.932 56C59.6334 56.7536 59.218 57.4171 58.6922 57.9968C58.1664 58.57 57.5433 59.0274 56.8228 59.3752C56.0958 59.7295 55.3103 59.8969 54.473 59.8969ZM49.4814 53.6296C49.4814 54.3382 49.6047 55.0209 49.8449 55.6779C50.085 56.3349 50.4291 56.9146 50.8769 57.4171C51.3183 57.9195 51.8506 58.3253 52.4672 58.628C53.0839 58.9307 53.759 59.0789 54.4925 59.0789C55.2519 59.0789 55.9335 58.9243 56.5436 58.6087C57.1538 58.2931 57.6731 57.8808 58.108 57.3655C58.5429 56.8502 58.8739 56.2641 59.1076 55.6135C59.3413 54.963 59.4646 54.2995 59.4646 53.6296C59.4646 52.9211 59.3413 52.2383 59.0946 51.5813C58.848 50.9243 58.4974 50.3446 58.0561 49.8422C57.6147 49.3398 57.0889 48.934 56.4852 48.6312C55.8815 48.3285 55.2195 48.1803 54.4989 48.1803C53.7395 48.1803 53.0579 48.3349 52.4413 48.6506C51.8246 48.9662 51.2989 49.3784 50.864 49.8937C50.4291 50.409 50.0915 50.9952 49.8513 51.6457C49.6047 52.2898 49.4814 52.9533 49.4814 53.6296Z" fill="#fff"/><path d="M62.8012 47.4074L67.2022 54.3317L71.6226 47.4074H72.6352L67.663 55.1949V59.9098H66.7608V55.1562L61.8081 47.4074H62.8012Z" fill="#fff"/><path d="M78.5615 47.4074H79.3404L84.6631 59.9098H83.7024L81.9433 55.7874H75.9261L74.167 59.9098H73.1934L78.5615 47.4074ZM81.7031 55.0531L78.9509 48.5024L76.1468 55.0531H81.7031Z" fill="#fff"/><path d="M86.1753 59.9098V47.4074H87.0776V54.9952L94.4254 47.4074H95.477L90.2387 52.8824L95.7431 59.9098H94.711L89.6545 53.43L87.0776 56.058V59.9098H86.1753Z" fill="#fff"/><path d="M112.075 47.4074V59.9098H111.166V53.9259H103.214V59.9098H102.312V47.4074H103.214V53.1143H111.166V47.4074H112.075Z" fill="#fff"/><path d="M116.262 47.4074H115.359V59.9098H116.262V47.4074Z" fill="#fff"/><path d="M119.565 59.9098V47.4074H120.468V59.1047H127.991V59.9098H119.565Z" fill="#fff"/><path d="M129.568 59.9098V47.4074H130.477V59.1047H138V59.9098H129.568Z" fill="#fff"/><path d="M130.912 15.9871C129.237 15.8712 127.549 15.8196 125.848 15.8196C125.595 15.8196 125.336 15.8196 125.083 15.8261L112.555 6.2029L102.961 13.5652L108.53 17.8422L118.63 25.591C117.196 25.5072 115.748 25.4686 114.294 25.4686C113.451 25.4686 112.613 25.4815 111.782 25.5072L103.571 19.2077L99.5856 16.1481L96.7815 13.9903L85.2793 5.16586L62.1257 22.9372C59.393 23.1304 56.7057 23.4718 54.0703 23.9485L85.2858 0L100.157 11.4138L112.555 1.90016L130.912 15.9871Z" fill="#C8D0DB"/><path d="M22.0631 22.5765C22.0631 16.7472 17.3051 12.0258 11.4307 12.0258C5.55629 12.0258 0.79834 16.7472 0.79834 22.5765C0.79834 28.4058 5.55629 33.1272 11.4307 33.1272C17.3051 33.1272 22.0631 28.4058 22.0631 22.5765Z" fill="#F8B553"/><path d="M59.3153 8.99841C51.9609 24.2641 36.1552 34.8277 17.8374 34.8277C17.1169 34.8277 16.3964 34.8084 15.6823 34.7762C15.1501 34.7504 14.6243 34.7182 14.0985 34.6796C10.8011 34.3317 7.77623 33.0821 5.27068 31.1884C5.26419 31.182 5.2577 31.182 5.25121 31.1755C4.81631 30.847 4.40088 30.4992 3.99843 30.1321L3.99194 30.1256C2.59636 28.773 1.57727 27.0403 1.09693 25.095C0.902197 24.2899 0.79834 23.4525 0.79834 22.5894C0.79834 20.6506 1.32412 18.8342 2.24585 17.2754C4.41386 23.9098 10.457 28.8245 17.7335 29.3784C17.74 29.3784 17.74 29.3784 17.7465 29.3784C17.8958 29.3913 18.0451 29.3978 18.2009 29.4042C18.2139 29.4042 18.2204 29.4042 18.2333 29.4042C18.6488 29.43 19.0707 29.4429 19.4926 29.4557C19.9535 29.4686 20.4208 29.4751 20.8882 29.4751C23.7897 29.4751 26.6328 29.211 29.385 28.7021C41.8868 26.409 52.6035 19.1047 59.3153 8.99841Z" fill="#F8B553"/><path d="M115.859 40.0322C115.801 41.7391 114.405 43.1304 112.685 43.1948C111.867 43.227 111.108 42.963 110.517 42.4992C110.491 42.4799 110.465 42.4605 110.439 42.4412C102.799 36.2899 93.0234 32.5604 82.3586 32.4573H82.3456C74.1539 32.277 69.9737 32.4573 65.0599 33.1594C60.8213 33.7649 56.0373 34.7504 47.6639 36.219C39.1411 37.7198 35.0972 38.628 33.442 38.8921C32.7344 39.008 32.0269 39.1304 31.3129 39.2528C10.0611 42.9501 0.116839 37.2818 0 37.2109C0.12333 37.256 11.9111 41.1852 28.34 37.6232C28.34 37.6232 34.9154 36.4316 45.5023 33.5008C54.0186 31.1433 65.5857 28.5797 71.908 28.0451C71.908 28.0451 82.6961 27.124 89.6351 27.8905C98.9498 28.496 107.486 31.8776 114.379 37.1916C114.444 37.2432 114.509 37.2882 114.574 37.3398C114.82 37.533 115.048 37.752 115.236 38.0097C115.651 38.57 115.885 39.2721 115.859 40.0322Z" fill="#71BBC2"/></g>
    </symbol>
    <symbol id="mobile-arr" viewBox="0 0 35 19">
      <path d="M34.2632 9.16956C34.1711 9.16956 29.1053 6.6913 24.0395 2.80591e-07L23.3026 0.495652C26.8947 5.28696 30.4868 7.93043 32.4211 9.16956L-1.07028e-07 9.16956L-1.1667e-07 9.99565L32.4211 9.99565C30.4868 11.1522 26.8947 13.7957 23.3026 18.6696L24.0395 19.1652C29.1053 12.4739 34.1711 10.0783 34.2632 9.99565L35.0921 9.66522L34.2632 9.16956Z" fill="#BAA174"/>
    </symbol>
    <symbol id="plus" viewBox="0 0 10 10">
      <path d="M4.45659 0.470581H5.54364V4.45646H9.52953V5.54352H5.54364V9.5294H4.45659V5.54352H0.470703V4.45646H4.45659V0.470581Z" fill="#fff"/>
    </symbol>
    <symbol id="telega" viewBox="0 0 14 13">
      <path fill-rule="evenodd" clip-rule="evenodd" d="M13.3976 0.873366L0.489549 5.82535C-0.00559883 6.01648 0.0285492 6.72887 0.540772 6.86787L3.67871 7.76297L11.1097 3.14941C11.2121 3.07991 11.3316 3.23629 11.2292 3.34054L5.66445 8.60515L10.5462 12.6017C11.0584 13.0361 11.8267 12.7581 11.9633 12.0979L13.9951 1.35988C14.0464 1.02974 13.7049 0.751739 13.3976 0.873366ZM7.55823 10.1694L5.9362 11.9417C5.74838 12.1675 5.4752 12.2023 5.23616 12.1154L5.64594 8.6056L7.55823 10.1694Z" fill="#BAA174"/>
    </symbol>
    <symbol id="tg" viewBox="0 0 14 13">
      <path fill-rule="evenodd" clip-rule="evenodd" d="M13.3976 0.873244L0.489549 5.82523C-0.00559883 6.01636 0.0285492 6.72875 0.540772 6.86775L3.67871 7.76285L11.1097 3.14929C11.2121 3.07979 11.3316 3.23616 11.2292 3.34042L5.66445 8.60503L10.5462 12.6016C11.0584 13.036 11.8267 12.758 11.9633 12.0977L13.9951 1.35975C14.0464 1.02962 13.7049 0.751617 13.3976 0.873244ZM7.55823 10.1693L5.9362 11.9415C5.74838 12.1674 5.4752 12.2022 5.23616 12.1153L5.64594 8.60547L7.55823 10.1693Z"/>
    </symbol>
    <symbol id="up" viewBox="0 0 13 15">
      <path d="M6.5 2V13.25M6.5 2L2 5.5M6.5 2L11 5.5" stroke="#fff" stroke-width="2" stroke-linecap="square"/>
    </symbol>
    <symbol id="whatsup" viewBox="0 0 15 15">
      <path fill-rule="evenodd" clip-rule="evenodd" d="M12.8145 2.17987C11.4045 0.774902 9.52918 0.000823973 7.53137 0C3.41469 0 0.0643031 3.33426 0.0626472 7.43234C0.0620952 8.74237 0.405965 10.0212 1.05957 11.1484L0 15L3.95928 13.9664C5.05023 14.5586 6.27843 14.8707 7.52833 14.8711H7.53146C11.6477 14.8711 14.9984 11.5366 15 7.43829C15.0008 5.45215 14.2247 3.58475 12.8145 2.17987ZM7.53137 13.6158H7.52879C6.41494 13.6154 5.32253 13.3174 4.3693 12.7547L4.14272 12.6207L1.79322 13.2341L2.42033 10.9544L2.27269 10.7206C1.65127 9.737 1.32313 8.6001 1.32369 7.4328C1.32497 4.02658 4.10978 1.25537 7.53385 1.25537C9.19193 1.25592 10.7506 1.89935 11.9226 3.06711C13.0946 4.23486 13.7396 5.78705 13.7391 7.43784C13.7376 10.8443 10.953 13.6158 7.53137 13.6158ZM10.9364 8.98883C10.7498 8.89581 9.8323 8.44666 9.66119 8.38458C9.49027 8.3226 9.36571 8.29175 9.24143 8.4776C9.11696 8.66345 8.75938 9.08185 8.65046 9.20572C8.54154 9.32968 8.43281 9.34525 8.24615 9.25223C8.0595 9.1593 7.45824 8.9631 6.74538 8.33038C6.19066 7.83792 5.81616 7.22974 5.70724 7.04388C5.59851 6.85785 5.70632 6.76703 5.78912 6.66486C5.99113 6.41519 6.19342 6.15344 6.25561 6.02957C6.31789 5.90561 6.28671 5.79712 6.23997 5.70419C6.19342 5.61127 5.82021 4.69711 5.66474 4.32513C5.51314 3.96313 5.35942 4.01202 5.24479 4.00635C5.13606 4.00095 5.01159 3.99985 4.88713 3.99985C4.76275 3.99985 4.56055 4.04626 4.38944 4.2323C4.21843 4.41824 3.73639 4.86749 3.73639 5.78165C3.73639 6.6958 4.40508 7.57892 4.49836 7.70288C4.59164 7.82684 5.81432 9.70276 7.68629 10.5071C8.13153 10.6987 8.47908 10.8128 8.75018 10.8984C9.19727 11.0398 9.60397 11.0198 9.92558 10.972C10.2842 10.9187 11.0296 10.5227 11.1852 10.0889C11.3407 9.65506 11.3407 9.28326 11.294 9.20572C11.2474 9.12827 11.123 9.08185 10.9364 8.98883Z"/>
    </symbol></svg>