<svg width="138" height="60" viewBox="0 0 138 60" fill="none" xmlns="http://www.w3.org/2000/svg"><g clip-path="url(#clip0_83_9168)" fill="#959595"><path d="M10.1389 48.2188H5.52375V59.9096H4.62149V48.2188H0.00634766V47.4072H10.1389V48.2188Z"/><path d="M17.0649 59.0725C17.8957 59.0725 18.5838 58.9115 19.129 58.5959C19.6743 58.2803 20.1092 57.868 20.4207 57.3527C20.7388 56.8374 20.9595 56.2513 21.0958 55.6007C21.2256 54.9437 21.297 54.2867 21.297 53.6168V47.356H22.1798V53.6168C22.1798 54.4477 22.089 55.24 21.9137 56.0001C21.7319 56.7601 21.4463 57.43 21.0439 58.0097C20.6414 58.5894 20.1157 59.0468 19.4731 59.3882C18.8304 59.7295 18.032 59.897 17.0908 59.897C16.1107 59.897 15.2928 59.7167 14.6372 59.3624C13.9816 59.0081 13.4558 58.5315 13.0599 57.9389C12.6639 57.3463 12.3783 56.6764 12.216 55.9292C12.0473 55.182 11.9629 54.4091 11.9629 53.6168V47.356H12.8457V53.6168C12.8457 54.306 12.9106 54.9824 13.0469 55.6329C13.1767 56.2899 13.4104 56.8696 13.735 57.3785C14.066 57.8874 14.4944 58.2996 15.0397 58.6088C15.5719 58.918 16.247 59.0725 17.0649 59.0725Z"/><path d="M25.5098 59.9096V47.4072H30.7481C31.2803 47.4072 31.7736 47.5167 32.2215 47.7422C32.6694 47.9676 33.0589 48.2639 33.3834 48.6311C33.708 48.9982 33.9611 49.4169 34.1494 49.8807C34.3311 50.3444 34.422 50.8146 34.422 51.2784C34.422 51.7357 34.3506 52.1802 34.2078 52.6053C34.065 53.0369 33.8638 53.4169 33.6041 53.7583C33.3445 54.0997 33.0329 54.3831 32.6629 54.6021C32.2929 54.8275 31.897 54.9692 31.4556 55.0401L34.5973 59.9032H33.5522L30.5014 55.1818H26.4185V59.9032H25.5098V59.9096ZM26.4185 54.3637H30.8389C31.2414 54.3637 31.6049 54.2736 31.9424 54.0997C32.2735 53.9257 32.5591 53.6939 32.7927 53.404C33.0264 53.1141 33.2082 52.7856 33.3315 52.4185C33.4548 52.0513 33.5197 51.6713 33.5197 51.2848C33.5197 50.8855 33.4483 50.499 33.299 50.1319C33.1497 49.7647 32.9485 49.4362 32.6954 49.1528C32.4422 48.8694 32.1436 48.6439 31.8061 48.4765C31.4686 48.309 31.1051 48.2188 30.7156 48.2188H26.4185V54.3637Z"/><path d="M46.3135 57.9647C45.0932 59.3238 43.6781 60.0001 42.0748 60.0001C41.2245 60.0001 40.4326 59.8197 39.7056 59.4526C38.9786 59.0919 38.3555 58.6088 37.8362 58.0097C37.3169 57.4107 36.9079 56.7344 36.6094 55.9743C36.3108 55.2142 36.168 54.4413 36.168 53.6555C36.168 52.8374 36.3108 52.0452 36.6029 51.2851C36.895 50.525 37.2974 49.8487 37.8102 49.269C38.323 48.6828 38.9397 48.2191 39.6472 47.8713C40.3547 47.5234 41.1336 47.356 41.971 47.356C42.6006 47.356 43.1653 47.4204 43.6651 47.5556C44.165 47.6909 44.6193 47.8777 45.0153 48.116C45.4112 48.3543 45.7553 48.6442 46.0474 48.9791C46.3395 49.3141 46.5796 49.6812 46.7809 50.0742L46.0344 50.5122C45.606 49.6941 45.0413 49.1015 44.3402 48.7279C43.6392 48.3608 42.8408 48.174 41.9515 48.174C41.205 48.174 40.53 48.335 39.9263 48.6506C39.3226 48.9663 38.8098 49.3849 38.3814 49.9002C37.953 50.4155 37.6285 51.0017 37.4078 51.6587C37.1806 52.3157 37.0702 52.9856 37.0702 53.6748C37.0702 54.4091 37.2 55.1112 37.4597 55.7746C37.7193 56.4381 38.0763 57.0178 38.5307 57.5202C38.9851 58.0226 39.5238 58.422 40.134 58.7247C40.7507 59.021 41.4127 59.1756 42.1203 59.1756C42.8862 59.1756 43.6197 59.0017 44.3143 58.6474C45.0088 58.2932 45.6709 57.7392 46.3135 56.9791V54.5766H43.4574V53.8551H47.0989V59.9099H46.32V57.9647H46.3135Z"/><path d="M54.473 59.8971C53.5967 59.8971 52.7983 59.7168 52.0778 59.3561C51.3573 58.9953 50.7341 58.5251 50.2148 57.9454C49.6956 57.3657 49.2931 56.6958 49.0075 55.9422C48.7219 55.1886 48.5791 54.4156 48.5791 53.6234C48.5791 52.7989 48.7284 52.0066 49.0335 51.253C49.3321 50.4994 49.7475 49.8295 50.2733 49.2498C50.799 48.6701 51.4222 48.2063 52.1427 47.8649C52.8632 47.5235 53.6421 47.3496 54.486 47.3496C55.3623 47.3496 56.1607 47.53 56.8942 47.8971C57.6212 48.2643 58.2443 48.7409 58.7571 49.3335C59.2699 49.9261 59.6723 50.596 59.9579 51.3432C60.2435 52.0904 60.3863 52.8504 60.3863 53.6169C60.3863 54.4543 60.237 55.2466 59.932 56.0002C59.6334 56.7538 59.218 57.4172 58.6922 57.997C58.1664 58.5702 57.5433 59.0275 56.8228 59.3754C56.0958 59.7296 55.3103 59.8971 54.473 59.8971ZM49.4814 53.6298C49.4814 54.3383 49.6047 55.0211 49.8449 55.6781C50.085 56.3351 50.4291 56.9148 50.8769 57.4172C51.3183 57.9197 51.8506 58.3255 52.4672 58.6282C53.0839 58.9309 53.759 59.0791 54.4925 59.0791C55.2519 59.0791 55.9335 58.9245 56.5436 58.6089C57.1538 58.2933 57.6731 57.881 58.108 57.3657C58.5429 56.8504 58.8739 56.2643 59.1076 55.6137C59.3413 54.9631 59.4646 54.2997 59.4646 53.6298C59.4646 52.9213 59.3413 52.2385 59.0946 51.5815C58.848 50.9245 58.4974 50.3448 58.0561 49.8424C57.6147 49.3399 57.0889 48.9342 56.4852 48.6314C55.8815 48.3287 55.2195 48.1805 54.4989 48.1805C53.7395 48.1805 53.0579 48.3351 52.4413 48.6507C51.8246 48.9664 51.2989 49.3786 50.864 49.8939C50.4291 50.4092 50.0915 50.9953 49.8513 51.6459C49.6047 52.29 49.4814 52.9535 49.4814 53.6298Z"/><path d="M62.8012 47.4072L67.2022 54.3315L71.6226 47.4072H72.6352L67.663 55.1947V59.9096H66.7608V55.156L61.8081 47.4072H62.8012Z"/><path d="M78.5615 47.4072H79.3404L84.6631 59.9096H83.7024L81.9433 55.7873H75.9261L74.167 59.9096H73.1934L78.5615 47.4072ZM81.7031 55.053L78.9509 48.5022L76.1468 55.053H81.7031Z"/><path d="M86.1753 59.9096V47.4072H87.0776V54.995L94.4254 47.4072H95.477L90.2387 52.8823L95.7431 59.9096H94.711L89.6545 53.4298L87.0776 56.0578V59.9096H86.1753Z"/><path d="M112.075 47.4072V59.9096H111.166V53.9257H103.214V59.9096H102.312V47.4072H103.214V53.1141H111.166V47.4072H112.075Z"/><path d="M116.262 47.4072H115.359V59.9096H116.262V47.4072Z"/><path d="M119.565 59.9096V47.4072H120.468V59.1045H127.991V59.9096H119.565Z"/><path d="M129.568 59.9096V47.4072H130.477V59.1045H138V59.9096H129.568Z"/><path d="M130.912 15.9871C129.237 15.8712 127.549 15.8196 125.848 15.8196C125.595 15.8196 125.336 15.8196 125.083 15.8261L112.555 6.2029L102.961 13.5652L108.53 17.8422L118.63 25.591C117.196 25.5072 115.748 25.4686 114.294 25.4686C113.451 25.4686 112.613 25.4815 111.782 25.5072L103.571 19.2077L99.5856 16.1481L96.7815 13.9903L85.2793 5.16586L62.1257 22.9372C59.393 23.1304 56.7057 23.4718 54.0703 23.9485L85.2858 0L100.157 11.4138L112.555 1.90016L130.912 15.9871Z"/><path d="M22.0631 22.5766C22.0631 16.7473 17.3051 12.0259 11.4307 12.0259C5.55629 12.0259 0.79834 16.7473 0.79834 22.5766C0.79834 28.4059 5.55629 33.1273 11.4307 33.1273C17.3051 33.1273 22.0631 28.4059 22.0631 22.5766Z"/><path d="M59.3153 8.99854C51.9609 24.2642 36.1552 34.8278 17.8374 34.8278C17.1169 34.8278 16.3964 34.8085 15.6823 34.7763C15.1501 34.7505 14.6243 34.7183 14.0985 34.6797C10.8011 34.3319 7.77623 33.0823 5.27068 31.1886C5.26419 31.1821 5.2577 31.1821 5.25121 31.1757C4.81631 30.8472 4.40088 30.4993 3.99843 30.1322L3.99194 30.1257C2.59636 28.7731 1.57727 27.0404 1.09693 25.0952C0.902197 24.29 0.79834 23.4526 0.79834 22.5895C0.79834 20.6507 1.32412 18.8343 2.24585 17.2755C4.41386 23.91 10.457 28.8246 17.7335 29.3786C17.74 29.3786 17.74 29.3786 17.7465 29.3786C17.8958 29.3915 18.0451 29.3979 18.2009 29.4043C18.2139 29.4043 18.2204 29.4043 18.2333 29.4043C18.6488 29.4301 19.0707 29.443 19.4926 29.4559C19.9535 29.4687 20.4208 29.4752 20.8882 29.4752C23.7897 29.4752 26.6328 29.2111 29.385 28.7022C41.8868 26.4092 52.6035 19.1048 59.3153 8.99854Z"/><path d="M115.859 40.0324C115.801 41.7393 114.405 43.1306 112.685 43.195C111.867 43.2272 111.108 42.9631 110.517 42.4994C110.491 42.4801 110.465 42.4607 110.439 42.4414C102.799 36.29 93.0234 32.5606 82.3586 32.4575H82.3456C74.1539 32.2772 69.9737 32.4575 65.0599 33.1596C60.8213 33.7651 56.0373 34.7506 47.6639 36.2192C39.1411 37.72 35.0972 38.6282 33.442 38.8923C32.7344 39.0082 32.0269 39.1306 31.3129 39.253C10.0611 42.9503 0.116839 37.282 0 37.2111C0.12333 37.2562 11.9111 41.1854 28.34 37.6234C28.34 37.6234 34.9154 36.4317 45.5023 33.501C54.0186 31.1435 65.5857 28.5799 71.908 28.0453C71.908 28.0453 82.6961 27.1242 89.6351 27.8907C98.9498 28.4962 107.486 31.8778 114.379 37.1918C114.444 37.2433 114.509 37.2884 114.574 37.34C114.82 37.5332 115.048 37.7522 115.236 38.0098C115.651 38.5702 115.885 39.2723 115.859 40.0324Z"/></g><defs><clipPath id="clip0_83_9168"><path fill="#fff" d="M0 0H138V60H0z"/></clipPath></defs></svg>