<svg width="55" height="25" viewBox="0 0 55 25" xmlns="http://www.w3.org/2000/svg"><mask id="mask0_395_429" style="mask-type:alpha" maskUnits="userSpaceOnUse" x="0" y="0" width="24" height="25"><path d="M14.8678 0.841753L0 9.38721L8.58394 24.1884L23.4518 15.6429L14.8678 0.841753Z" fill="#fff"/></mask><g mask="url(#mask0_395_429)"><path d="M7.29352 8.43674C7.17434 8.27794 6.94769 8.25412 6.79229 8.36653L2.7839 11.3908L2.80658 10.0487C2.80819 9.85126 2.65283 9.69015 2.45453 9.68854C2.25914 9.68527 2.09439 9.84158 2.0911 10.0361L2.05548 12.11C2.05282 12.1655 2.06802 12.2184 2.08903 12.268C2.10456 12.3014 2.12422 12.3286 2.14678 12.3542C2.15471 12.3612 2.15974 12.3699 2.16599 12.374C2.16767 12.3768 2.17225 12.3781 2.17225 12.3781C2.1785 12.3822 2.18185 12.388 2.1881 12.3921C2.18978 12.395 2.19436 12.3962 2.19603 12.3991C2.20229 12.4032 2.20854 12.4073 2.21479 12.4114C2.21647 12.4143 2.22105 12.4155 2.22273 12.4184C2.22898 12.4225 2.23523 12.4266 2.24149 12.4307C2.24316 12.4336 2.24606 12.432 2.24774 12.4348C2.25399 12.439 2.26315 12.4414 2.27231 12.4438C2.27231 12.4438 2.27231 12.4438 2.27688 12.4451C2.28772 12.4504 2.30145 12.4541 2.31519 12.4577L4.27007 12.9792C4.36621 13.0048 4.46135 12.9887 4.54261 12.942C4.62388 12.8953 4.6855 12.8213 4.71125 12.7256C4.76276 12.5342 4.65049 12.3406 4.45821 12.2893L3.21004 11.9588L7.22302 8.93573C7.37961 8.81876 7.41105 8.59266 7.29352 8.43674Z"/><path d="M15.4286 2.53235C15.4106 2.50801 15.3914 2.48824 15.3647 2.4689L15.363 2.46601C15.3568 2.4619 15.3488 2.4549 15.3426 2.45079C15.338 2.44957 15.3363 2.44668 15.3317 2.44546C15.3255 2.44135 15.3209 2.44013 15.3147 2.43602C15.2959 2.42369 15.2759 2.41591 15.2559 2.40814L15.2513 2.40691C15.2451 2.40281 15.2376 2.40325 15.2313 2.39914L13.2764 1.87768C13.0842 1.82639 12.8897 1.93816 12.8382 2.12958C12.7867 2.321 12.8989 2.51459 13.0912 2.56588L14.3319 2.89684L10.0175 6.10085C9.85802 6.21953 9.82784 6.44103 9.94533 6.59695C10.0532 6.74297 10.2538 6.78182 10.4105 6.69173C10.4221 6.68508 10.4367 6.67671 10.4466 6.66717L14.7668 3.4598L14.7445 4.80942C14.7429 5.00682 14.8983 5.16797 15.0966 5.16957C15.1627 5.17011 15.2262 5.15284 15.2813 5.12115C15.3858 5.06108 15.4573 4.9507 15.4583 4.8191L15.4936 2.76464C15.5041 2.68927 15.4825 2.60536 15.4286 2.53235Z"/><path d="M17.7724 12.4193C17.5418 12.3553 17.3073 12.3514 17.0839 12.4066C17.167 11.7425 16.7484 11.1008 16.0754 10.9213C15.8494 10.8585 15.6137 10.8592 15.3903 10.9144C15.4734 10.2502 15.0548 9.60854 14.3818 9.42902C14.1575 9.36916 13.9276 9.36646 13.71 9.41834L14.1737 7.69554C14.3687 6.97088 13.9364 6.2254 13.2039 6.02999C12.476 5.83583 11.7271 6.26624 11.5321 6.99089L9.75253 13.6115L7.91793 11.3489C7.43168 10.7307 6.55047 10.5592 5.86547 10.9528C5.35466 11.2465 5.178 11.9028 5.47293 12.4113L8.84449 18.2249C9.37069 19.1322 10.2175 19.7781 11.2338 20.0492L12.7692 20.4612C13.7809 20.7311 14.8416 20.5915 15.7501 20.0694C16.5976 19.5822 17.2322 18.8014 17.529 17.8719L18.7421 14.0848C18.9372 13.3601 18.5049 12.6147 17.7724 12.4193ZM18.0557 13.8822L16.8463 17.6555C16.6024 18.416 16.0852 19.0523 15.3915 19.451C14.6485 19.8781 13.7814 19.9912 12.9527 19.7702L11.4174 19.3582C10.5887 19.1371 9.89463 18.6076 9.46397 17.865L6.09405 12.0543C5.9952 11.8838 6.05407 11.6651 6.22532 11.5667C6.60262 11.3498 7.08736 11.4449 7.36033 11.7888L9.64097 14.6003C9.72542 14.7058 9.86033 14.7516 9.99242 14.7257C10.1245 14.6999 10.2279 14.5981 10.2652 14.4688L12.2292 7.17198C12.3224 6.82557 12.6794 6.62041 13.032 6.71445C13.3799 6.80724 13.586 7.16266 13.4928 7.50903L12.178 12.3754C12.1265 12.5668 12.2388 12.7604 12.4311 12.8117C12.6234 12.863 12.8178 12.7512 12.8694 12.5598L13.4042 10.5726C13.4938 10.2399 13.8607 10.0252 14.207 10.1151C14.5549 10.2079 14.761 10.5633 14.6678 10.9097L14.1975 12.6478L14.1313 12.8939C14.0797 13.0854 14.192 13.279 14.3843 13.3303C14.5766 13.3815 14.771 13.2698 14.8226 13.0784L14.8888 12.8322L15.0949 12.0666C15.1844 11.7339 15.5514 11.5191 15.8976 11.609C16.2456 11.7018 16.4517 12.0572 16.3585 12.4036L16.1495 13.171L16.0845 13.4125L16.0832 13.4171C16.0317 13.6085 16.144 13.8021 16.3363 13.8534C16.5286 13.9047 16.723 13.7929 16.7746 13.6015L16.7856 13.5605C16.878 13.2261 17.2421 13.013 17.5883 13.1029C17.9363 13.1957 18.1424 13.5511 18.0557 13.8822Z"/></g><path d="M25.0483 10.2763C24.8766 10.4472 24.6363 10.5497 24.3616 10.5497C23.8351 10.5497 23.4002 10.1167 23.4002 9.59262C23.4002 8.97735 23.4002 8.1342 23.4002 7.31383V7.29105C24.4417 7.29105 24.4417 7.29105 25.1971 7.29105V5.98074C24.5104 5.98074 24.064 5.98074 23.4002 5.98074C23.4002 5.39965 23.4002 4.82996 23.4002 4.36279H22.084C22.084 6.74414 22.084 8.15699 22.084 9.60402C22.084 10.8573 23.1026 11.8714 24.3616 11.8714C24.9911 11.8714 25.5633 11.6093 25.9754 11.1992L25.0483 10.2763ZM26.376 9.59262C26.376 10.846 27.3946 11.8714 28.6536 11.8714C29.2831 11.8714 29.8668 11.6093 30.2788 11.1878C30.6908 11.6093 31.2745 11.8714 31.904 11.8714C33.163 11.8714 34.1931 10.8573 34.1931 9.60402C34.1931 8.57856 34.1931 7.67844 34.1931 5.98074H32.8769C32.8769 7.02899 32.8769 8.61274 32.8769 9.59262C32.8769 10.1281 32.4419 10.5611 31.9155 10.5611C31.3775 10.5611 30.9426 10.1281 30.9426 9.59262V5.98074H29.6264V9.60402C29.615 10.1281 29.18 10.5497 28.6536 10.5497C28.1271 10.5497 27.6922 10.1281 27.6922 9.60402C27.6807 8.68111 27.6922 6.96062 27.6922 5.98074H26.376C26.376 7.55311 26.376 8.63553 26.376 9.59262ZM37.8689 5.91238C36.2093 5.91238 34.8816 7.24547 34.8816 8.8862C34.8816 10.5383 36.2093 11.8714 37.8689 11.8714C39.517 11.8714 40.8561 10.5383 40.8561 8.8862C40.8561 7.24547 39.517 5.91238 37.8689 5.91238ZM37.8689 10.5155C36.9762 10.5155 36.2437 9.78632 36.2437 8.89759C36.2437 8.00886 36.9762 7.27965 37.8689 7.27965C38.7616 7.27965 39.4941 8.00886 39.4941 8.89759C39.4941 9.78632 38.7616 10.5155 37.8689 10.5155ZM25.0483 18.4657C24.8766 18.6366 24.6363 18.7391 24.3616 18.7391C23.8351 18.7391 23.4002 18.3061 23.4002 17.782C23.4002 17.1667 23.4002 16.3236 23.4002 15.5032V15.4804C24.4417 15.4804 24.4417 15.4804 25.1971 15.4804V14.1701C24.5104 14.1701 24.064 14.1701 23.4002 14.1701C23.4002 13.589 23.4002 13.0193 23.4002 12.5522H22.084C22.084 14.9335 22.084 16.3464 22.084 17.7934C22.084 19.0467 23.1026 20.0608 24.3616 20.0608C24.9911 20.0608 25.5633 19.7987 25.9754 19.3886L25.0483 18.4657ZM29.0837 14.1018C27.4242 14.1018 26.0965 15.4349 26.0965 17.0756C26.0965 18.7277 27.4242 20.0608 29.0837 20.0608C30.7318 20.0608 32.0709 18.7277 32.0709 17.0756C32.0709 15.4349 30.7318 14.1018 29.0837 14.1018ZM29.0837 18.7049C28.191 18.7049 27.4585 17.9757 27.4585 17.087C27.4585 16.1983 28.191 15.469 29.0837 15.469C29.9765 15.469 30.7089 16.1983 30.7089 17.087C30.7089 17.9757 29.9765 18.7049 29.0837 18.7049ZM32.758 17.782C32.758 19.0353 33.7766 20.0608 35.0356 20.0608C36.2944 20.0608 37.3131 19.0467 37.3245 17.7934V14.1701H36.0083C36.0083 15.2298 36.0083 16.7907 36.0083 17.782C36.0083 18.3061 35.5735 18.7391 35.0356 18.7391C34.5091 18.7391 34.0742 18.3061 34.0742 17.782C34.0742 16.8591 34.0742 15.15 34.0742 14.1701H32.758V17.782ZM42.143 18.2264C41.8454 18.5226 41.4448 18.6935 40.9984 18.6935C40.1057 18.6935 39.3732 17.9757 39.3732 17.087C39.3732 16.1983 40.1057 15.469 40.9984 15.469C41.4448 15.469 41.8454 15.6513 42.143 15.9362L43.1044 14.9791C42.5664 14.4436 41.8225 14.1018 40.9984 14.1018C39.3389 14.1018 37.9998 15.4349 37.9998 17.0756C37.9998 18.7277 39.3389 20.0608 40.9984 20.0608C41.8225 20.0608 42.5664 19.719 43.1044 19.1835L42.143 18.2264ZM48.3563 16.3692C48.3563 15.1158 47.3377 14.1018 46.0787 14.1018C45.7239 14.1018 45.392 14.1815 45.1059 14.3183C45.1059 13.646 45.1059 13.0763 45.1059 12.5408H43.7897V20.0038H45.1059C45.1059 18.9898 45.1059 17.6567 45.1059 16.3806C45.1059 15.845 45.5408 15.4235 46.0673 15.4235C46.6052 15.4235 47.0401 15.845 47.0401 16.3806C47.0401 17.3035 47.0401 19.0126 47.0401 19.9924H48.3563C48.3563 18.4087 48.3563 17.3377 48.3563 16.3692Z"/></svg>