<svg width="43" height="45" viewBox="0 0 43 45" fill="none" xmlns="http://www.w3.org/2000/svg">
<path fill-rule="evenodd" clip-rule="evenodd" d="M23.7597 0.171486C23.5347 0.350718 23.5329 0.362063 23.5092 1.73022L23.4853 3.10849L22.4606 1.6822C21.897 0.897822 21.3561 0.212732 21.2587 0.159965C21.0173 0.0290157 20.6938 0.126283 20.5304 0.37886C20.3346 0.681742 20.3763 5.27993 20.5768 5.47868C20.8071 5.70708 21.1323 5.73443 21.3637 5.54491C21.5678 5.37772 21.5768 5.32276 21.6187 3.99339L21.6621 2.61512L22.7289 4.10859C23.8259 5.64428 24.0225 5.82237 24.3968 5.61948C24.4902 5.56883 24.6066 5.45177 24.6554 5.35934C24.7098 5.25645 24.7443 4.25608 24.7443 2.7823C24.7443 0.377981 24.7439 0.372968 24.5434 0.182128C24.2917 -0.0572575 24.0509 -0.0605116 23.7597 0.171486ZM20.4489 7.25411C15.6705 8.00621 11.6633 10.9095 9.47445 15.2054C6.45139 21.1386 7.69512 28.3636 12.5248 32.9244C14.5281 34.8162 16.8725 36.0479 19.6743 36.6808C20.4248 36.8502 20.7913 36.875 22.5737 36.8766C24.3675 36.8781 24.7215 36.8545 25.5039 36.6815C29.385 35.823 32.6755 33.5733 34.8553 30.2879C35.88 28.7436 36.7763 26.4494 37.1232 24.4835C37.3377 23.2683 37.3377 20.7738 37.1232 19.5586C35.9808 13.0848 30.9938 8.16108 24.6548 7.24857C23.535 7.08737 21.4914 7.09001 20.4489 7.25411ZM25.2947 8.59843C30.0623 9.63776 33.9144 13.0739 35.4128 17.6238C35.9394 19.2231 36.0672 20.082 36.0672 22.0211C36.0672 23.9582 35.9392 24.8205 35.4151 26.4106C34.2972 29.8023 31.8016 32.6917 28.5749 34.3296C27.8351 34.7051 26.2099 35.2684 25.2652 35.4766C24.3898 35.6696 21.8086 35.7504 20.8122 35.616C17.7428 35.2021 15.0402 33.805 12.834 31.492C8.32796 26.7677 7.78081 19.551 11.517 14.1236C12.217 13.1068 13.9239 11.4095 14.9293 10.7306C16.4669 9.6922 18.1239 8.9809 19.8524 8.61725C21.043 8.3667 21.1239 8.36063 22.8776 8.38789C24.0715 8.40645 24.6421 8.45614 25.2947 8.59843ZM22.2368 9.81875C22.0933 9.93977 21.7914 10.9685 20.8235 14.6337C20.1464 17.1973 19.581 19.3098 19.5668 19.3283C19.5527 19.3467 17.5574 19.829 15.1328 20.4C10.4296 21.5077 10.4186 21.5114 10.4186 22.0308C10.4186 22.3875 10.6942 22.5502 11.8577 22.8805C18.1389 24.6632 19.8446 25.1578 19.8976 25.2119C19.9317 25.2466 20.451 27.1351 21.0516 29.4084C22.3206 34.2112 22.3396 34.2706 22.6243 34.343C22.9125 34.4163 23.248 34.3183 23.3387 34.1344C23.3801 34.0503 23.9534 31.9415 24.6126 29.4481L25.8111 24.9147L30.118 23.7472C32.4868 23.1051 34.4933 22.5172 34.5768 22.4407C34.6612 22.3635 34.7288 22.1767 34.7288 22.0211C34.7288 21.8644 34.6617 21.6804 34.5768 21.6043C34.4933 21.5293 32.4356 20.9295 30.0042 20.2714C27.5727 19.6133 25.5738 19.065 25.5621 19.0529C25.5504 19.0408 24.9943 16.9754 24.3264 14.4631C23.4552 11.186 23.0681 9.86264 22.9565 9.78006C22.7413 9.62061 22.4534 9.63609 22.2368 9.81875ZM15.6473 14.9905C15.299 15.2376 15.3941 15.5573 16.2896 17.1498C16.749 17.9667 17.1495 18.6352 17.1796 18.6352C17.2096 18.6353 17.5337 18.5671 17.8998 18.4838L18.5656 18.3322L18.7968 17.4606C18.9884 16.7385 19.0082 16.5704 18.9125 16.4805C18.6516 16.2354 16.2017 14.8536 16.028 14.8536C15.9247 14.8536 15.7534 14.9152 15.6473 14.9905ZM27.5515 15.6253C26.8273 16.0473 26.2128 16.4148 26.186 16.4419C26.1393 16.4893 26.5043 17.9936 26.5759 18.0491C26.6277 18.0892 27.9899 18.4558 28.0059 18.434C28.2554 18.093 29.6063 15.5829 29.6063 15.4601C29.6063 15.2412 29.2322 14.8529 29.0242 14.8558C28.9385 14.857 28.2757 15.2033 27.5515 15.6253ZM0.213148 19.3788C0.0959384 19.4975 0 19.6398 0 19.695C0 19.9275 1.24312 24.4129 1.35868 24.5975C1.5588 24.9168 1.86172 25.0196 2.11264 24.853C2.27361 24.7462 2.42867 24.3953 2.7803 23.3426C3.03217 22.5883 3.26477 21.9547 3.29715 21.9345C3.32954 21.9141 3.54538 22.4991 3.77684 23.2345C4.00822 23.9698 4.25549 24.6408 4.32625 24.7254C4.49295 24.9248 4.96821 24.9247 5.14663 24.725C5.29319 24.5609 6.61809 20.0492 6.61939 19.7096C6.62122 19.2465 5.98438 18.9822 5.63613 19.3015C5.5494 19.381 5.32583 20.0237 5.11208 20.8079C4.907 21.5601 4.71825 22.121 4.69264 22.0543C4.66703 21.9877 4.45049 21.3395 4.21139 20.614C3.81609 19.414 3.75462 19.2871 3.53209 19.2097C3.35063 19.1467 3.22717 19.1585 3.05457 19.2553C2.86009 19.3644 2.75017 19.5984 2.3876 20.6746C2.14884 21.3835 1.92988 21.987 1.90105 22.0161C1.87223 22.045 1.70102 21.504 1.5206 20.8137C1.1767 19.4976 0.996542 19.1629 0.632064 19.1629C0.518848 19.1629 0.330358 19.2601 0.213148 19.3788ZM38.8646 19.4331L38.6358 19.6153V22.0211V24.4268L38.8646 24.609C39.079 24.7799 39.2041 24.7913 40.8615 24.7913C42.5139 24.7913 42.641 24.7798 42.8032 24.6154C43.0711 24.3441 43.0647 23.9523 42.7887 23.714C42.6351 23.5815 42.4189 23.5601 41.2308 23.5601H39.8513V23.0827V22.6054L41.1615 22.5771C42.4174 22.5499 42.4785 22.5401 42.6375 22.3411C42.8602 22.0622 42.8462 21.8367 42.5901 21.5774C42.3834 21.3679 42.3392 21.3615 41.1141 21.3615H39.8513V20.9218V20.482H41.227C42.4494 20.482 42.6186 20.4641 42.7464 20.3212C42.9704 20.0705 42.9298 19.6471 42.6613 19.4331C42.4479 19.263 42.3206 19.2508 40.7629 19.2508C39.2052 19.2508 39.078 19.263 38.8646 19.4331ZM27.4178 25.7477C27.1453 25.827 26.8868 25.9311 26.8433 25.9792C26.7766 26.0528 26.3939 27.3799 26.3939 27.5374C26.3939 27.651 28.9852 29.1006 29.1882 29.1006C29.4673 29.1006 29.7229 28.8142 29.719 28.5059C29.7148 28.1805 28.2197 25.5794 28.0447 25.5932C27.9724 25.5989 27.6903 25.6685 27.4178 25.7477ZM16.287 27.0144C15.7728 27.8484 15.4543 28.4551 15.4543 28.6008C15.4543 28.8934 15.7329 29.1886 16.0092 29.1886C16.1965 29.1886 18.9119 27.7197 19.1607 27.4837C19.2404 27.4081 19.2298 27.2601 19.1149 26.838C19.0329 26.5368 18.9278 26.2564 18.8813 26.2149C18.835 26.1734 18.4844 26.0516 18.1024 25.9442C17.7204 25.8369 17.3429 25.7299 17.2638 25.7065C17.155 25.6744 16.9158 25.9947 16.287 27.0144ZM21.7178 38.5199C21.0133 38.8819 20.61 39.6754 20.6879 40.5457C20.7713 41.4777 21.1721 41.8987 22.225 42.1601C23.0185 42.3571 23.2692 42.5547 23.2655 42.9803C23.2615 43.4454 22.9369 43.7874 22.4992 43.7874C22.2162 43.7874 21.7923 43.3667 21.7923 43.0858C21.7923 42.7198 21.5284 42.4389 21.1846 42.4389C20.578 42.4389 20.4145 43.1264 20.8272 43.9416C21.0427 44.3673 21.3079 44.6129 21.7923 44.8353C22.7348 45.2681 23.8668 44.8184 24.3188 43.8314C24.5505 43.3256 24.537 42.5242 24.2884 42.0259C24.0404 41.5284 23.7059 41.3057 22.8592 41.0739C22.4383 40.9587 22.1256 40.8181 22.0311 40.7014C21.6633 40.2476 22.0221 39.5309 22.6171 39.5309C22.9975 39.5309 23.3551 39.8718 23.3551 40.2345C23.3551 40.4936 23.7115 40.8852 23.9472 40.8852C24.0385 40.8852 24.216 40.8032 24.3418 40.7029C24.6491 40.4582 24.6457 40.0115 24.3319 39.3845C23.9798 38.6812 23.5241 38.3897 22.7202 38.3535C22.2117 38.3308 22.0261 38.3616 21.7178 38.5199Z" fill="#BAA174"/>
</svg>
