<svg width="1460" height="1260" viewBox="0 0 1460 1260" fill="none" xmlns="http://www.w3.org/2000/svg">
<g id="&#208;&#148;&#208;&#190;&#208;&#188; &#208;&#184;&#208;&#183; &#208;&#154;&#208;&#176;&#209;&#128;&#208;&#176;&#208;&#179;&#208;&#176;&#209;&#135;&#208;&#176; 14_0">
<g id="wall">
<g id="wall_2">
<path d="M181.5 274V305H147.5V515H181.5V545H147.5V741.5H741.5V686.5H772.5V741.5H867V772.5H773V980H1027.5V772.5H922V741.5H1027.5V679.5H1058.5V742.5L1171.5 741.5V772.5L1058.5 773.5V981L1312.5 980V904H1343.5V1011L1058.5 1012V1148.5L1027.5 1147.5V1011H741.5V772.5H116.5V274H181.5Z" fill="#858585"/>
<path d="M411 545V515H867V545H773V630.5H741.5V545H411Z" fill="#858585"/>
<path d="M922 545V515H1171.5V545L1058.5 546V631.5H1027.5V545H922Z" fill="#858585"/>
<path d="M1227 545V515H1312V305H361V274L1343.5 273V853.5H1312.5V772.5H1227V741.5H1312.5L1312 545H1227Z" fill="#858585"/>
<path d="M181.5 274V305H147.5V515H181.5V545H147.5V741.5H741.5V686.5H772.5V741.5H867V772.5H773V980H1027.5V772.5H922V741.5H1027.5V679.5H1058.5V742.5L1171.5 741.5V772.5L1058.5 773.5V981L1312.5 980V904H1343.5V1011L1058.5 1012V1148.5L1027.5 1147.5V1011H741.5V772.5H116.5V274H181.5Z" stroke="black"/>
<path d="M411 545V515H867V545H773V630.5H741.5V545H411Z" stroke="black"/>
<path d="M922 545V515H1171.5V545L1058.5 546V631.5H1027.5V545H922Z" stroke="black"/>
<path d="M1227 545V515H1312V305H361V274L1343.5 273V853.5H1312.5V772.5H1227V741.5H1312.5L1312 545H1227Z" stroke="black"/>
</g>
<path id="Vector 87" d="M758.5 273V112H1048.5V273" stroke="black"/>
</g>
</g>
</svg>
