<svg width="1024" height="940" viewBox="0 0 1024 940" fill="none" xmlns="http://www.w3.org/2000/svg">
<g id="&#208;&#148;&#208;&#190;&#208;&#188; &#208;&#184;&#208;&#183; &#208;&#186;&#208;&#184;&#209;&#128;&#208;&#191;&#208;&#184;&#209;&#135;&#208;&#176; 1_1">
<g id="wall">
<path id="&#208;&#161;&#208;&#176;&#208;&#189;&#209;&#131;&#208;&#183;&#208;&#181;&#208;&#187; 3,82 &#208;&#186;&#208;&#178;. &#208;&#188;" d="M221.289 259.383H222.789C222.711 260.102 222.505 260.745 222.172 261.312C221.839 261.88 221.367 262.331 220.758 262.664C220.148 262.992 219.388 263.156 218.477 263.156C217.81 263.156 217.203 263.031 216.656 262.781C216.115 262.531 215.648 262.177 215.258 261.719C214.867 261.255 214.565 260.701 214.352 260.055C214.143 259.404 214.039 258.68 214.039 257.883V256.75C214.039 255.953 214.143 255.232 214.352 254.586C214.565 253.935 214.87 253.378 215.266 252.914C215.667 252.451 216.148 252.094 216.711 251.844C217.273 251.594 217.906 251.469 218.609 251.469C219.469 251.469 220.195 251.63 220.789 251.953C221.383 252.276 221.844 252.724 222.172 253.297C222.505 253.865 222.711 254.523 222.789 255.273H221.289C221.216 254.742 221.081 254.286 220.883 253.906C220.685 253.521 220.404 253.224 220.039 253.016C219.674 252.807 219.198 252.703 218.609 252.703C218.104 252.703 217.659 252.799 217.273 252.992C216.893 253.185 216.573 253.458 216.312 253.812C216.057 254.167 215.865 254.591 215.734 255.086C215.604 255.581 215.539 256.13 215.539 256.734V257.883C215.539 258.44 215.596 258.964 215.711 259.453C215.831 259.943 216.01 260.372 216.25 260.742C216.49 261.112 216.794 261.404 217.164 261.617C217.534 261.826 217.971 261.93 218.477 261.93C219.117 261.93 219.628 261.828 220.008 261.625C220.388 261.422 220.674 261.13 220.867 260.75C221.065 260.37 221.206 259.914 221.289 259.383ZM229.609 261.555V257.203C229.609 256.87 229.542 256.581 229.406 256.336C229.276 256.086 229.078 255.893 228.812 255.758C228.547 255.622 228.219 255.555 227.828 255.555C227.464 255.555 227.143 255.617 226.867 255.742C226.596 255.867 226.383 256.031 226.227 256.234C226.076 256.438 226 256.656 226 256.891H224.555C224.555 256.589 224.633 256.289 224.789 255.992C224.945 255.695 225.169 255.427 225.461 255.188C225.758 254.943 226.112 254.75 226.523 254.609C226.94 254.464 227.404 254.391 227.914 254.391C228.529 254.391 229.07 254.495 229.539 254.703C230.013 254.911 230.383 255.227 230.648 255.648C230.919 256.065 231.055 256.589 231.055 257.219V261.156C231.055 261.438 231.078 261.737 231.125 262.055C231.177 262.372 231.253 262.646 231.352 262.875V263H229.844C229.771 262.833 229.714 262.612 229.672 262.336C229.63 262.055 229.609 261.794 229.609 261.555ZM229.859 257.875L229.875 258.891H228.414C228.003 258.891 227.635 258.924 227.312 258.992C226.99 259.055 226.719 259.151 226.5 259.281C226.281 259.411 226.115 259.576 226 259.773C225.885 259.966 225.828 260.193 225.828 260.453C225.828 260.719 225.888 260.961 226.008 261.18C226.128 261.398 226.307 261.573 226.547 261.703C226.792 261.828 227.091 261.891 227.445 261.891C227.888 261.891 228.279 261.797 228.617 261.609C228.956 261.422 229.224 261.193 229.422 260.922C229.625 260.651 229.734 260.388 229.75 260.133L230.367 260.828C230.331 261.047 230.232 261.289 230.07 261.555C229.909 261.82 229.693 262.076 229.422 262.32C229.156 262.56 228.839 262.76 228.469 262.922C228.104 263.078 227.693 263.156 227.234 263.156C226.661 263.156 226.159 263.044 225.727 262.82C225.299 262.596 224.966 262.297 224.727 261.922C224.492 261.542 224.375 261.117 224.375 260.648C224.375 260.195 224.464 259.797 224.641 259.453C224.818 259.104 225.073 258.815 225.406 258.586C225.74 258.352 226.141 258.174 226.609 258.055C227.078 257.935 227.602 257.875 228.18 257.875H229.859ZM239.062 258.211V259.383H234.594V258.211H239.062ZM234.898 254.547V263H233.453V254.547H234.898ZM240.234 254.547V263H238.781V254.547H240.234ZM244.938 262.125L247.289 254.547H248.836L245.445 264.305C245.367 264.513 245.263 264.737 245.133 264.977C245.008 265.221 244.846 265.453 244.648 265.672C244.451 265.891 244.211 266.068 243.93 266.203C243.654 266.344 243.323 266.414 242.938 266.414C242.823 266.414 242.677 266.398 242.5 266.367C242.323 266.336 242.198 266.31 242.125 266.289L242.117 265.117C242.159 265.122 242.224 265.128 242.312 265.133C242.406 265.143 242.471 265.148 242.508 265.148C242.836 265.148 243.115 265.104 243.344 265.016C243.573 264.932 243.766 264.789 243.922 264.586C244.083 264.388 244.221 264.115 244.336 263.766L244.938 262.125ZM243.211 254.547L245.406 261.109L245.781 262.633L244.742 263.164L241.633 254.547H243.211ZM253.297 258.961H251.742V258.07H253.18C253.581 258.07 253.898 258.021 254.133 257.922C254.367 257.818 254.534 257.674 254.633 257.492C254.732 257.31 254.781 257.096 254.781 256.852C254.781 256.633 254.724 256.427 254.609 256.234C254.5 256.036 254.323 255.878 254.078 255.758C253.833 255.633 253.505 255.57 253.094 255.57C252.76 255.57 252.458 255.63 252.188 255.75C251.917 255.865 251.701 256.023 251.539 256.227C251.383 256.424 251.305 256.648 251.305 256.898H249.859C249.859 256.383 250.005 255.94 250.297 255.57C250.594 255.195 250.987 254.906 251.477 254.703C251.971 254.5 252.51 254.398 253.094 254.398C253.583 254.398 254.021 254.453 254.406 254.562C254.797 254.667 255.128 254.823 255.398 255.031C255.669 255.234 255.875 255.49 256.016 255.797C256.161 256.099 256.234 256.451 256.234 256.852C256.234 257.138 256.167 257.409 256.031 257.664C255.896 257.919 255.701 258.146 255.445 258.344C255.19 258.536 254.88 258.688 254.516 258.797C254.156 258.906 253.75 258.961 253.297 258.961ZM251.742 258.414H253.297C253.802 258.414 254.247 258.464 254.633 258.562C255.018 258.656 255.341 258.797 255.602 258.984C255.862 259.172 256.057 259.404 256.188 259.68C256.323 259.951 256.391 260.263 256.391 260.617C256.391 261.013 256.31 261.37 256.148 261.688C255.992 262 255.768 262.266 255.477 262.484C255.185 262.703 254.836 262.87 254.43 262.984C254.029 263.099 253.583 263.156 253.094 263.156C252.547 263.156 252.016 263.062 251.5 262.875C250.984 262.688 250.56 262.398 250.227 262.008C249.893 261.612 249.727 261.109 249.727 260.5H251.172C251.172 260.755 251.253 260.997 251.414 261.227C251.576 261.456 251.799 261.641 252.086 261.781C252.378 261.922 252.714 261.992 253.094 261.992C253.5 261.992 253.839 261.93 254.109 261.805C254.38 261.68 254.583 261.513 254.719 261.305C254.859 261.096 254.93 260.87 254.93 260.625C254.93 260.307 254.867 260.052 254.742 259.859C254.617 259.667 254.424 259.526 254.164 259.438C253.909 259.344 253.581 259.297 253.18 259.297H251.742V258.414ZM261.773 263.156C261.185 263.156 260.651 263.057 260.172 262.859C259.698 262.656 259.289 262.372 258.945 262.008C258.607 261.643 258.346 261.211 258.164 260.711C257.982 260.211 257.891 259.664 257.891 259.07V258.742C257.891 258.055 257.992 257.443 258.195 256.906C258.398 256.365 258.674 255.906 259.023 255.531C259.372 255.156 259.768 254.872 260.211 254.68C260.654 254.487 261.112 254.391 261.586 254.391C262.19 254.391 262.711 254.495 263.148 254.703C263.591 254.911 263.953 255.203 264.234 255.578C264.516 255.948 264.724 256.385 264.859 256.891C264.995 257.391 265.062 257.938 265.062 258.531V259.18H258.75V258H263.617V257.891C263.596 257.516 263.518 257.151 263.383 256.797C263.253 256.443 263.044 256.151 262.758 255.922C262.471 255.693 262.081 255.578 261.586 255.578C261.258 255.578 260.956 255.648 260.68 255.789C260.404 255.924 260.167 256.128 259.969 256.398C259.771 256.669 259.617 257 259.508 257.391C259.398 257.781 259.344 258.232 259.344 258.742V259.07C259.344 259.471 259.398 259.849 259.508 260.203C259.622 260.552 259.786 260.859 260 261.125C260.219 261.391 260.482 261.599 260.789 261.75C261.102 261.901 261.456 261.977 261.852 261.977C262.362 261.977 262.794 261.872 263.148 261.664C263.503 261.456 263.812 261.177 264.078 260.828L264.953 261.523C264.771 261.799 264.539 262.062 264.258 262.312C263.977 262.562 263.63 262.766 263.219 262.922C262.812 263.078 262.331 263.156 261.773 263.156ZM272.398 254.547V255.742H268.312V254.547H272.398ZM273.672 254.547V263H272.227V254.547H273.672ZM267.961 254.547H269.414L269.195 258.625C269.159 259.255 269.099 259.812 269.016 260.297C268.938 260.776 268.828 261.188 268.688 261.531C268.552 261.875 268.38 262.156 268.172 262.375C267.969 262.589 267.724 262.747 267.438 262.852C267.151 262.951 266.82 263 266.445 263H265.992V261.727L266.305 261.703C266.529 261.688 266.719 261.635 266.875 261.547C267.036 261.458 267.172 261.328 267.281 261.156C267.391 260.979 267.479 260.753 267.547 260.477C267.62 260.201 267.674 259.872 267.711 259.492C267.753 259.112 267.784 258.669 267.805 258.164L267.961 254.547ZM211.055 275.602H212.086C212.591 275.602 213.008 275.518 213.336 275.352C213.669 275.18 213.917 274.948 214.078 274.656C214.245 274.359 214.328 274.026 214.328 273.656C214.328 273.219 214.255 272.852 214.109 272.555C213.964 272.258 213.745 272.034 213.453 271.883C213.161 271.732 212.792 271.656 212.344 271.656C211.938 271.656 211.578 271.737 211.266 271.898C210.958 272.055 210.716 272.279 210.539 272.57C210.367 272.862 210.281 273.206 210.281 273.602H208.836C208.836 273.023 208.982 272.497 209.273 272.023C209.565 271.549 209.974 271.172 210.5 270.891C211.031 270.609 211.646 270.469 212.344 270.469C213.031 270.469 213.633 270.591 214.148 270.836C214.664 271.076 215.065 271.435 215.352 271.914C215.638 272.388 215.781 272.979 215.781 273.688C215.781 273.974 215.714 274.281 215.578 274.609C215.448 274.932 215.242 275.234 214.961 275.516C214.685 275.797 214.326 276.029 213.883 276.211C213.44 276.388 212.909 276.477 212.289 276.477H211.055V275.602ZM211.055 276.789V275.922H212.289C213.013 275.922 213.612 276.008 214.086 276.18C214.56 276.352 214.932 276.581 215.203 276.867C215.479 277.154 215.672 277.469 215.781 277.812C215.896 278.151 215.953 278.49 215.953 278.828C215.953 279.359 215.862 279.831 215.68 280.242C215.503 280.654 215.25 281.003 214.922 281.289C214.599 281.576 214.219 281.792 213.781 281.938C213.344 282.083 212.867 282.156 212.352 282.156C211.857 282.156 211.391 282.086 210.953 281.945C210.521 281.805 210.138 281.602 209.805 281.336C209.471 281.065 209.211 280.734 209.023 280.344C208.836 279.948 208.742 279.497 208.742 278.992H210.188C210.188 279.388 210.273 279.734 210.445 280.031C210.622 280.328 210.872 280.56 211.195 280.727C211.523 280.888 211.909 280.969 212.352 280.969C212.794 280.969 213.174 280.893 213.492 280.742C213.815 280.586 214.062 280.352 214.234 280.039C214.411 279.727 214.5 279.333 214.5 278.859C214.5 278.385 214.401 277.997 214.203 277.695C214.005 277.388 213.724 277.161 213.359 277.016C213 276.865 212.576 276.789 212.086 276.789H211.055ZM219.414 280.281V281.445C219.414 281.919 219.294 282.419 219.055 282.945C218.815 283.477 218.479 283.919 218.047 284.273L217.227 283.703C217.393 283.474 217.534 283.24 217.648 283C217.763 282.766 217.849 282.521 217.906 282.266C217.969 282.016 218 281.75 218 281.469V280.281H219.414ZM228.273 278.922C228.273 279.615 228.112 280.203 227.789 280.688C227.471 281.167 227.039 281.531 226.492 281.781C225.951 282.031 225.339 282.156 224.656 282.156C223.974 282.156 223.359 282.031 222.812 281.781C222.266 281.531 221.833 281.167 221.516 280.688C221.198 280.203 221.039 279.615 221.039 278.922C221.039 278.469 221.125 278.055 221.297 277.68C221.474 277.299 221.721 276.969 222.039 276.688C222.362 276.406 222.742 276.19 223.18 276.039C223.622 275.883 224.109 275.805 224.641 275.805C225.339 275.805 225.961 275.94 226.508 276.211C227.055 276.477 227.484 276.844 227.797 277.312C228.115 277.781 228.273 278.318 228.273 278.922ZM226.82 278.891C226.82 278.469 226.729 278.096 226.547 277.773C226.365 277.445 226.109 277.19 225.781 277.008C225.453 276.826 225.073 276.734 224.641 276.734C224.198 276.734 223.815 276.826 223.492 277.008C223.174 277.19 222.927 277.445 222.75 277.773C222.573 278.096 222.484 278.469 222.484 278.891C222.484 279.328 222.57 279.703 222.742 280.016C222.919 280.323 223.169 280.56 223.492 280.727C223.82 280.888 224.208 280.969 224.656 280.969C225.104 280.969 225.49 280.888 225.812 280.727C226.135 280.56 226.383 280.323 226.555 280.016C226.732 279.703 226.82 279.328 226.82 278.891ZM228.008 273.586C228.008 274.138 227.862 274.635 227.57 275.078C227.279 275.521 226.88 275.87 226.375 276.125C225.87 276.38 225.297 276.508 224.656 276.508C224.005 276.508 223.424 276.38 222.914 276.125C222.409 275.87 222.013 275.521 221.727 275.078C221.44 274.635 221.297 274.138 221.297 273.586C221.297 272.924 221.44 272.362 221.727 271.898C222.018 271.435 222.417 271.081 222.922 270.836C223.427 270.591 224.003 270.469 224.648 270.469C225.299 270.469 225.878 270.591 226.383 270.836C226.888 271.081 227.284 271.435 227.57 271.898C227.862 272.362 228.008 272.924 228.008 273.586ZM226.562 273.609C226.562 273.229 226.482 272.893 226.32 272.602C226.159 272.31 225.935 272.081 225.648 271.914C225.362 271.742 225.029 271.656 224.648 271.656C224.268 271.656 223.935 271.737 223.648 271.898C223.367 272.055 223.146 272.279 222.984 272.57C222.828 272.862 222.75 273.208 222.75 273.609C222.75 274 222.828 274.341 222.984 274.633C223.146 274.924 223.37 275.151 223.656 275.312C223.943 275.474 224.276 275.555 224.656 275.555C225.036 275.555 225.367 275.474 225.648 275.312C225.935 275.151 226.159 274.924 226.32 274.633C226.482 274.341 226.562 274 226.562 273.609ZM237.555 280.812V282H230.109V280.961L233.836 276.812C234.294 276.302 234.648 275.87 234.898 275.516C235.154 275.156 235.331 274.836 235.43 274.555C235.534 274.268 235.586 273.977 235.586 273.68C235.586 273.305 235.508 272.966 235.352 272.664C235.201 272.357 234.977 272.112 234.68 271.93C234.383 271.747 234.023 271.656 233.602 271.656C233.096 271.656 232.674 271.755 232.336 271.953C232.003 272.146 231.753 272.417 231.586 272.766C231.419 273.115 231.336 273.516 231.336 273.969H229.891C229.891 273.328 230.031 272.742 230.312 272.211C230.594 271.68 231.01 271.258 231.562 270.945C232.115 270.628 232.794 270.469 233.602 270.469C234.32 270.469 234.935 270.596 235.445 270.852C235.956 271.102 236.346 271.456 236.617 271.914C236.893 272.367 237.031 272.898 237.031 273.508C237.031 273.841 236.974 274.18 236.859 274.523C236.75 274.862 236.596 275.201 236.398 275.539C236.206 275.878 235.979 276.211 235.719 276.539C235.464 276.867 235.19 277.19 234.898 277.508L231.852 280.812H237.555ZM244.797 273.547V282H243.352V273.547H244.797ZM250.344 273.547L246.336 278.391H244.312L244.094 277.125H245.75L248.586 273.547H250.344ZM248.789 282L245.68 278.172L246.609 277.125L250.625 282H248.789ZM255.852 278.281H253.078L253.062 277.125H255.328C255.776 277.125 256.148 277.081 256.445 276.992C256.747 276.904 256.974 276.771 257.125 276.594C257.276 276.417 257.352 276.198 257.352 275.938C257.352 275.734 257.307 275.557 257.219 275.406C257.135 275.25 257.008 275.122 256.836 275.023C256.664 274.919 256.451 274.844 256.195 274.797C255.945 274.745 255.651 274.719 255.312 274.719H253.461V282H252.016V273.547H255.312C255.849 273.547 256.331 273.594 256.758 273.688C257.19 273.781 257.557 273.924 257.859 274.117C258.167 274.305 258.401 274.544 258.562 274.836C258.724 275.128 258.805 275.471 258.805 275.867C258.805 276.122 258.753 276.365 258.648 276.594C258.544 276.823 258.391 277.026 258.188 277.203C257.984 277.38 257.734 277.526 257.438 277.641C257.141 277.75 256.799 277.82 256.414 277.852L255.852 278.281ZM255.852 282H252.555L253.273 280.828H255.852C256.253 280.828 256.586 280.779 256.852 280.68C257.117 280.576 257.315 280.43 257.445 280.242C257.581 280.049 257.648 279.82 257.648 279.555C257.648 279.289 257.581 279.062 257.445 278.875C257.315 278.682 257.117 278.536 256.852 278.438C256.586 278.333 256.253 278.281 255.852 278.281H253.656L253.672 277.125H256.414L256.938 277.562C257.401 277.599 257.794 277.714 258.117 277.906C258.44 278.099 258.685 278.344 258.852 278.641C259.018 278.932 259.102 279.25 259.102 279.594C259.102 279.99 259.026 280.339 258.875 280.641C258.729 280.943 258.516 281.195 258.234 281.398C257.953 281.596 257.612 281.747 257.211 281.852C256.81 281.951 256.357 282 255.852 282ZM261.062 281.234C261.062 280.99 261.138 280.784 261.289 280.617C261.445 280.445 261.669 280.359 261.961 280.359C262.253 280.359 262.474 280.445 262.625 280.617C262.781 280.784 262.859 280.99 262.859 281.234C262.859 281.474 262.781 281.677 262.625 281.844C262.474 282.01 262.253 282.094 261.961 282.094C261.669 282.094 261.445 282.01 261.289 281.844C261.138 281.677 261.062 281.474 261.062 281.234ZM274.086 280.078L276.961 273.547H278.352L274.586 282H273.586L269.836 273.547H271.227L274.086 280.078ZM270.805 273.547V282H269.359V273.547H270.805ZM277.32 282V273.547H278.773V282H277.32Z" fill="#858585"/>
<path id="&#208;&#162;&#208;&#176;&#208;&#188;&#208;&#177;&#209;&#131;&#209;&#128; 1,61 &#208;&#186;&#208;&#178;. &#208;&#188;" d="M358.195 251.625V263H356.711V251.625H358.195ZM361.852 251.625V252.859H353.062V251.625H361.852ZM367.414 261.555V257.203C367.414 256.87 367.346 256.581 367.211 256.336C367.081 256.086 366.883 255.893 366.617 255.758C366.352 255.622 366.023 255.555 365.633 255.555C365.268 255.555 364.948 255.617 364.672 255.742C364.401 255.867 364.188 256.031 364.031 256.234C363.88 256.438 363.805 256.656 363.805 256.891H362.359C362.359 256.589 362.438 256.289 362.594 255.992C362.75 255.695 362.974 255.427 363.266 255.188C363.562 254.943 363.917 254.75 364.328 254.609C364.745 254.464 365.208 254.391 365.719 254.391C366.333 254.391 366.875 254.495 367.344 254.703C367.818 254.911 368.188 255.227 368.453 255.648C368.724 256.065 368.859 256.589 368.859 257.219V261.156C368.859 261.438 368.883 261.737 368.93 262.055C368.982 262.372 369.057 262.646 369.156 262.875V263H367.648C367.576 262.833 367.518 262.612 367.477 262.336C367.435 262.055 367.414 261.794 367.414 261.555ZM367.664 257.875L367.68 258.891H366.219C365.807 258.891 365.44 258.924 365.117 258.992C364.794 259.055 364.523 259.151 364.305 259.281C364.086 259.411 363.919 259.576 363.805 259.773C363.69 259.966 363.633 260.193 363.633 260.453C363.633 260.719 363.693 260.961 363.812 261.18C363.932 261.398 364.112 261.573 364.352 261.703C364.596 261.828 364.896 261.891 365.25 261.891C365.693 261.891 366.083 261.797 366.422 261.609C366.76 261.422 367.029 261.193 367.227 260.922C367.43 260.651 367.539 260.388 367.555 260.133L368.172 260.828C368.135 261.047 368.036 261.289 367.875 261.555C367.714 261.82 367.497 262.076 367.227 262.32C366.961 262.56 366.643 262.76 366.273 262.922C365.909 263.078 365.497 263.156 365.039 263.156C364.466 263.156 363.964 263.044 363.531 262.82C363.104 262.596 362.771 262.297 362.531 261.922C362.297 261.542 362.18 261.117 362.18 260.648C362.18 260.195 362.268 259.797 362.445 259.453C362.622 259.104 362.878 258.815 363.211 258.586C363.544 258.352 363.945 258.174 364.414 258.055C364.883 257.935 365.406 257.875 365.984 257.875H367.664ZM375.992 261.078L378.867 254.547H380.258L376.492 263H375.492L371.742 254.547H373.133L375.992 261.078ZM372.711 254.547V263H371.266V254.547H372.711ZM379.227 263V254.547H380.68V263H379.227ZM388.43 250.867H389.617C389.617 251.378 389.539 251.784 389.383 252.086C389.227 252.383 389.013 252.612 388.742 252.773C388.477 252.935 388.174 253.057 387.836 253.141C387.503 253.224 387.156 253.305 386.797 253.383C386.349 253.477 385.932 253.625 385.547 253.828C385.167 254.026 384.839 254.307 384.562 254.672C384.292 255.036 384.091 255.51 383.961 256.094C383.836 256.677 383.802 257.398 383.859 258.258V258.977H382.672V258.258C382.672 257.294 382.763 256.453 382.945 255.734C383.133 255.016 383.396 254.409 383.734 253.914C384.073 253.419 384.474 253.026 384.938 252.734C385.406 252.443 385.922 252.242 386.484 252.133C386.891 252.055 387.24 251.971 387.531 251.883C387.823 251.789 388.044 251.664 388.195 251.508C388.352 251.352 388.43 251.138 388.43 250.867ZM386.719 255.031C387.271 255.031 387.763 255.128 388.195 255.32C388.628 255.513 388.995 255.781 389.297 256.125C389.599 256.469 389.828 256.875 389.984 257.344C390.146 257.807 390.227 258.312 390.227 258.859V259.031C390.227 259.62 390.141 260.167 389.969 260.672C389.802 261.172 389.555 261.609 389.227 261.984C388.904 262.354 388.508 262.643 388.039 262.852C387.576 263.06 387.047 263.164 386.453 263.164C385.859 263.164 385.328 263.06 384.859 262.852C384.396 262.643 384 262.354 383.672 261.984C383.344 261.609 383.094 261.172 382.922 260.672C382.755 260.167 382.672 259.62 382.672 259.031V258.859C382.672 258.729 382.695 258.602 382.742 258.477C382.789 258.352 382.846 258.224 382.914 258.094C382.987 257.964 383.052 257.826 383.109 257.68C383.302 257.211 383.565 256.776 383.898 256.375C384.237 255.974 384.641 255.651 385.109 255.406C385.583 255.156 386.12 255.031 386.719 255.031ZM386.438 256.211C385.906 256.211 385.469 256.333 385.125 256.578C384.786 256.823 384.534 257.148 384.367 257.555C384.201 257.956 384.117 258.391 384.117 258.859V259.031C384.117 259.427 384.164 259.802 384.258 260.156C384.352 260.51 384.492 260.826 384.68 261.102C384.872 261.372 385.115 261.586 385.406 261.742C385.703 261.898 386.052 261.977 386.453 261.977C386.854 261.977 387.201 261.898 387.492 261.742C387.784 261.586 388.023 261.372 388.211 261.102C388.398 260.826 388.539 260.51 388.633 260.156C388.727 259.802 388.773 259.427 388.773 259.031V258.859C388.773 258.505 388.727 258.169 388.633 257.852C388.539 257.534 388.396 257.253 388.203 257.008C388.016 256.763 387.773 256.57 387.477 256.43C387.185 256.284 386.839 256.211 386.438 256.211ZM394.242 262.125L396.594 254.547H398.141L394.75 264.305C394.672 264.513 394.568 264.737 394.438 264.977C394.312 265.221 394.151 265.453 393.953 265.672C393.755 265.891 393.516 266.068 393.234 266.203C392.958 266.344 392.628 266.414 392.242 266.414C392.128 266.414 391.982 266.398 391.805 266.367C391.628 266.336 391.503 266.31 391.43 266.289L391.422 265.117C391.464 265.122 391.529 265.128 391.617 265.133C391.711 265.143 391.776 265.148 391.812 265.148C392.141 265.148 392.419 265.104 392.648 265.016C392.878 264.932 393.07 264.789 393.227 264.586C393.388 264.388 393.526 264.115 393.641 263.766L394.242 262.125ZM392.516 254.547L394.711 261.109L395.086 262.633L394.047 263.164L390.938 254.547H392.516ZM400.891 256.172V266.25H399.438V254.547H400.766L400.891 256.172ZM406.586 258.703V258.867C406.586 259.482 406.513 260.052 406.367 260.578C406.221 261.099 406.008 261.552 405.727 261.938C405.451 262.323 405.109 262.622 404.703 262.836C404.297 263.049 403.831 263.156 403.305 263.156C402.768 263.156 402.294 263.068 401.883 262.891C401.471 262.714 401.122 262.456 400.836 262.117C400.549 261.779 400.32 261.372 400.148 260.898C399.982 260.424 399.867 259.891 399.805 259.297V258.422C399.867 257.797 399.984 257.237 400.156 256.742C400.328 256.247 400.555 255.826 400.836 255.477C401.122 255.122 401.469 254.854 401.875 254.672C402.281 254.484 402.75 254.391 403.281 254.391C403.812 254.391 404.284 254.495 404.695 254.703C405.107 254.906 405.453 255.198 405.734 255.578C406.016 255.958 406.227 256.414 406.367 256.945C406.513 257.471 406.586 258.057 406.586 258.703ZM405.133 258.867V258.703C405.133 258.281 405.089 257.885 405 257.516C404.911 257.141 404.773 256.812 404.586 256.531C404.404 256.245 404.169 256.021 403.883 255.859C403.596 255.693 403.255 255.609 402.859 255.609C402.495 255.609 402.177 255.672 401.906 255.797C401.641 255.922 401.414 256.091 401.227 256.305C401.039 256.513 400.885 256.753 400.766 257.023C400.651 257.289 400.565 257.565 400.508 257.852V259.875C400.612 260.24 400.758 260.583 400.945 260.906C401.133 261.224 401.383 261.482 401.695 261.68C402.008 261.872 402.401 261.969 402.875 261.969C403.266 261.969 403.602 261.888 403.883 261.727C404.169 261.56 404.404 261.333 404.586 261.047C404.773 260.76 404.911 260.432 405 260.062C405.089 259.688 405.133 259.289 405.133 258.867ZM349.695 270.562V282H348.25V272.367L345.336 273.43V272.125L349.469 270.562H349.695ZM355.414 280.281V281.445C355.414 281.919 355.294 282.419 355.055 282.945C354.815 283.477 354.479 283.919 354.047 284.273L353.227 283.703C353.393 283.474 353.534 283.24 353.648 283C353.763 282.766 353.849 282.521 353.906 282.266C353.969 282.016 354 281.75 354 281.469V280.281H355.414ZM362.648 270.609H362.773V271.836H362.648C361.883 271.836 361.242 271.961 360.727 272.211C360.211 272.456 359.802 272.786 359.5 273.203C359.198 273.615 358.979 274.078 358.844 274.594C358.714 275.109 358.648 275.633 358.648 276.164V277.836C358.648 278.341 358.708 278.789 358.828 279.18C358.948 279.565 359.112 279.891 359.32 280.156C359.529 280.422 359.763 280.622 360.023 280.758C360.289 280.893 360.565 280.961 360.852 280.961C361.185 280.961 361.482 280.898 361.742 280.773C362.003 280.643 362.221 280.464 362.398 280.234C362.581 280 362.719 279.724 362.812 279.406C362.906 279.089 362.953 278.74 362.953 278.359C362.953 278.021 362.911 277.695 362.828 277.383C362.745 277.065 362.617 276.784 362.445 276.539C362.273 276.289 362.057 276.094 361.797 275.953C361.542 275.807 361.237 275.734 360.883 275.734C360.482 275.734 360.107 275.833 359.758 276.031C359.414 276.224 359.13 276.479 358.906 276.797C358.688 277.109 358.562 277.451 358.531 277.82L357.766 277.812C357.839 277.229 357.974 276.732 358.172 276.32C358.375 275.904 358.625 275.565 358.922 275.305C359.224 275.039 359.56 274.846 359.93 274.727C360.305 274.602 360.701 274.539 361.117 274.539C361.685 274.539 362.174 274.646 362.586 274.859C362.997 275.073 363.336 275.359 363.602 275.719C363.867 276.073 364.062 276.474 364.188 276.922C364.318 277.365 364.383 277.82 364.383 278.289C364.383 278.826 364.307 279.328 364.156 279.797C364.005 280.266 363.779 280.677 363.477 281.031C363.18 281.385 362.812 281.661 362.375 281.859C361.938 282.057 361.43 282.156 360.852 282.156C360.237 282.156 359.701 282.031 359.242 281.781C358.784 281.526 358.404 281.188 358.102 280.766C357.799 280.344 357.573 279.875 357.422 279.359C357.271 278.844 357.195 278.32 357.195 277.789V277.109C357.195 276.307 357.276 275.521 357.438 274.75C357.599 273.979 357.878 273.281 358.273 272.656C358.674 272.031 359.229 271.534 359.938 271.164C360.646 270.794 361.549 270.609 362.648 270.609ZM370.852 270.562V282H369.406V272.367L366.492 273.43V272.125L370.625 270.562H370.852ZM380.797 273.547V282H379.352V273.547H380.797ZM386.344 273.547L382.336 278.391H380.312L380.094 277.125H381.75L384.586 273.547H386.344ZM384.789 282L381.68 278.172L382.609 277.125L386.625 282H384.789ZM391.852 278.281H389.078L389.062 277.125H391.328C391.776 277.125 392.148 277.081 392.445 276.992C392.747 276.904 392.974 276.771 393.125 276.594C393.276 276.417 393.352 276.198 393.352 275.938C393.352 275.734 393.307 275.557 393.219 275.406C393.135 275.25 393.008 275.122 392.836 275.023C392.664 274.919 392.451 274.844 392.195 274.797C391.945 274.745 391.651 274.719 391.312 274.719H389.461V282H388.016V273.547H391.312C391.849 273.547 392.331 273.594 392.758 273.688C393.19 273.781 393.557 273.924 393.859 274.117C394.167 274.305 394.401 274.544 394.562 274.836C394.724 275.128 394.805 275.471 394.805 275.867C394.805 276.122 394.753 276.365 394.648 276.594C394.544 276.823 394.391 277.026 394.188 277.203C393.984 277.38 393.734 277.526 393.438 277.641C393.141 277.75 392.799 277.82 392.414 277.852L391.852 278.281ZM391.852 282H388.555L389.273 280.828H391.852C392.253 280.828 392.586 280.779 392.852 280.68C393.117 280.576 393.315 280.43 393.445 280.242C393.581 280.049 393.648 279.82 393.648 279.555C393.648 279.289 393.581 279.062 393.445 278.875C393.315 278.682 393.117 278.536 392.852 278.438C392.586 278.333 392.253 278.281 391.852 278.281H389.656L389.672 277.125H392.414L392.938 277.562C393.401 277.599 393.794 277.714 394.117 277.906C394.44 278.099 394.685 278.344 394.852 278.641C395.018 278.932 395.102 279.25 395.102 279.594C395.102 279.99 395.026 280.339 394.875 280.641C394.729 280.943 394.516 281.195 394.234 281.398C393.953 281.596 393.612 281.747 393.211 281.852C392.81 281.951 392.357 282 391.852 282ZM397.062 281.234C397.062 280.99 397.138 280.784 397.289 280.617C397.445 280.445 397.669 280.359 397.961 280.359C398.253 280.359 398.474 280.445 398.625 280.617C398.781 280.784 398.859 280.99 398.859 281.234C398.859 281.474 398.781 281.677 398.625 281.844C398.474 282.01 398.253 282.094 397.961 282.094C397.669 282.094 397.445 282.01 397.289 281.844C397.138 281.677 397.062 281.474 397.062 281.234ZM410.086 280.078L412.961 273.547H414.352L410.586 282H409.586L405.836 273.547H407.227L410.086 280.078ZM406.805 273.547V282H405.359V273.547H406.805ZM413.32 282V273.547H414.773V282H413.32Z" fill="#858585"/>
<path id="&#208;&#154;&#209;&#131;&#209;&#133;&#208;&#189;&#209;&#143; 14,78 &#208;&#186;&#208;&#178;. &#208;&#188;" d="M281.648 414.625V426H280.141V414.625H281.648ZM288.656 414.625L283.719 420.883H281.047L280.812 419.633H282.82L286.789 414.625H288.656ZM287.141 426L282.867 420.688L283.711 419.367L288.984 426H287.141ZM292.195 425.125L294.547 417.547H296.094L292.703 427.305C292.625 427.513 292.521 427.737 292.391 427.977C292.266 428.221 292.104 428.453 291.906 428.672C291.708 428.891 291.469 429.068 291.188 429.203C290.911 429.344 290.581 429.414 290.195 429.414C290.081 429.414 289.935 429.398 289.758 429.367C289.581 429.336 289.456 429.31 289.383 429.289L289.375 428.117C289.417 428.122 289.482 428.128 289.57 428.133C289.664 428.143 289.729 428.148 289.766 428.148C290.094 428.148 290.372 428.104 290.602 428.016C290.831 427.932 291.023 427.789 291.18 427.586C291.341 427.388 291.479 427.115 291.594 426.766L292.195 425.125ZM290.469 417.547L292.664 424.109L293.039 425.633L292 426.164L288.891 417.547H290.469ZM298.375 417.547L300.227 420.625L302.102 417.547H303.797L301.031 421.719L303.883 426H302.211L300.258 422.828L298.305 426H296.625L299.469 421.719L296.711 417.547H298.375ZM311.07 421.211V422.383H306.602V421.211H311.07ZM306.906 417.547V426H305.461V417.547H306.906ZM312.242 417.547V426H310.789V417.547H312.242ZM316.281 421.969H317.844L315.398 426H313.836L316.281 421.969ZM317.492 417.547H321.023V426H319.578V418.719H317.492C317.081 418.719 316.745 418.789 316.484 418.93C316.224 419.065 316.034 419.242 315.914 419.461C315.794 419.68 315.734 419.906 315.734 420.141C315.734 420.37 315.789 420.591 315.898 420.805C316.008 421.013 316.18 421.185 316.414 421.32C316.648 421.456 316.951 421.523 317.32 421.523H319.969V422.711H317.32C316.836 422.711 316.406 422.646 316.031 422.516C315.656 422.385 315.339 422.206 315.078 421.977C314.818 421.742 314.62 421.469 314.484 421.156C314.349 420.839 314.281 420.495 314.281 420.125C314.281 419.755 314.352 419.414 314.492 419.102C314.638 418.789 314.846 418.516 315.117 418.281C315.393 418.047 315.729 417.867 316.125 417.742C316.526 417.612 316.982 417.547 317.492 417.547ZM265.695 433.562V445H264.25V435.367L261.336 436.43V435.125L265.469 433.562H265.695ZM277.633 441.172V442.359H269.414V441.508L274.508 433.625H275.688L274.422 435.906L271.055 441.172H277.633ZM276.047 433.625V445H274.602V433.625H276.047ZM280.414 443.281V444.445C280.414 444.919 280.294 445.419 280.055 445.945C279.815 446.477 279.479 446.919 279.047 447.273L278.227 446.703C278.393 446.474 278.534 446.24 278.648 446C278.763 445.766 278.849 445.521 278.906 445.266C278.969 445.016 279 444.75 279 444.469V443.281H280.414ZM289.453 433.625V434.438L284.742 445H283.219L287.922 434.812H281.766V433.625H289.453ZM298.273 441.922C298.273 442.615 298.112 443.203 297.789 443.688C297.471 444.167 297.039 444.531 296.492 444.781C295.951 445.031 295.339 445.156 294.656 445.156C293.974 445.156 293.359 445.031 292.812 444.781C292.266 444.531 291.833 444.167 291.516 443.688C291.198 443.203 291.039 442.615 291.039 441.922C291.039 441.469 291.125 441.055 291.297 440.68C291.474 440.299 291.721 439.969 292.039 439.688C292.362 439.406 292.742 439.19 293.18 439.039C293.622 438.883 294.109 438.805 294.641 438.805C295.339 438.805 295.961 438.94 296.508 439.211C297.055 439.477 297.484 439.844 297.797 440.312C298.115 440.781 298.273 441.318 298.273 441.922ZM296.82 441.891C296.82 441.469 296.729 441.096 296.547 440.773C296.365 440.445 296.109 440.19 295.781 440.008C295.453 439.826 295.073 439.734 294.641 439.734C294.198 439.734 293.815 439.826 293.492 440.008C293.174 440.19 292.927 440.445 292.75 440.773C292.573 441.096 292.484 441.469 292.484 441.891C292.484 442.328 292.57 442.703 292.742 443.016C292.919 443.323 293.169 443.56 293.492 443.727C293.82 443.888 294.208 443.969 294.656 443.969C295.104 443.969 295.49 443.888 295.812 443.727C296.135 443.56 296.383 443.323 296.555 443.016C296.732 442.703 296.82 442.328 296.82 441.891ZM298.008 436.586C298.008 437.138 297.862 437.635 297.57 438.078C297.279 438.521 296.88 438.87 296.375 439.125C295.87 439.38 295.297 439.508 294.656 439.508C294.005 439.508 293.424 439.38 292.914 439.125C292.409 438.87 292.013 438.521 291.727 438.078C291.44 437.635 291.297 437.138 291.297 436.586C291.297 435.924 291.44 435.362 291.727 434.898C292.018 434.435 292.417 434.081 292.922 433.836C293.427 433.591 294.003 433.469 294.648 433.469C295.299 433.469 295.878 433.591 296.383 433.836C296.888 434.081 297.284 434.435 297.57 434.898C297.862 435.362 298.008 435.924 298.008 436.586ZM296.562 436.609C296.562 436.229 296.482 435.893 296.32 435.602C296.159 435.31 295.935 435.081 295.648 434.914C295.362 434.742 295.029 434.656 294.648 434.656C294.268 434.656 293.935 434.737 293.648 434.898C293.367 435.055 293.146 435.279 292.984 435.57C292.828 435.862 292.75 436.208 292.75 436.609C292.75 437 292.828 437.341 292.984 437.633C293.146 437.924 293.37 438.151 293.656 438.312C293.943 438.474 294.276 438.555 294.656 438.555C295.036 438.555 295.367 438.474 295.648 438.312C295.935 438.151 296.159 437.924 296.32 437.633C296.482 437.341 296.562 437 296.562 436.609ZM305.797 436.547V445H304.352V436.547H305.797ZM311.344 436.547L307.336 441.391H305.312L305.094 440.125H306.75L309.586 436.547H311.344ZM309.789 445L306.68 441.172L307.609 440.125L311.625 445H309.789ZM316.852 441.281H314.078L314.062 440.125H316.328C316.776 440.125 317.148 440.081 317.445 439.992C317.747 439.904 317.974 439.771 318.125 439.594C318.276 439.417 318.352 439.198 318.352 438.938C318.352 438.734 318.307 438.557 318.219 438.406C318.135 438.25 318.008 438.122 317.836 438.023C317.664 437.919 317.451 437.844 317.195 437.797C316.945 437.745 316.651 437.719 316.312 437.719H314.461V445H313.016V436.547H316.312C316.849 436.547 317.331 436.594 317.758 436.688C318.19 436.781 318.557 436.924 318.859 437.117C319.167 437.305 319.401 437.544 319.562 437.836C319.724 438.128 319.805 438.471 319.805 438.867C319.805 439.122 319.753 439.365 319.648 439.594C319.544 439.823 319.391 440.026 319.188 440.203C318.984 440.38 318.734 440.526 318.438 440.641C318.141 440.75 317.799 440.82 317.414 440.852L316.852 441.281ZM316.852 445H313.555L314.273 443.828H316.852C317.253 443.828 317.586 443.779 317.852 443.68C318.117 443.576 318.315 443.43 318.445 443.242C318.581 443.049 318.648 442.82 318.648 442.555C318.648 442.289 318.581 442.062 318.445 441.875C318.315 441.682 318.117 441.536 317.852 441.438C317.586 441.333 317.253 441.281 316.852 441.281H314.656L314.672 440.125H317.414L317.938 440.562C318.401 440.599 318.794 440.714 319.117 440.906C319.44 441.099 319.685 441.344 319.852 441.641C320.018 441.932 320.102 442.25 320.102 442.594C320.102 442.99 320.026 443.339 319.875 443.641C319.729 443.943 319.516 444.195 319.234 444.398C318.953 444.596 318.612 444.747 318.211 444.852C317.81 444.951 317.357 445 316.852 445ZM322.062 444.234C322.062 443.99 322.138 443.784 322.289 443.617C322.445 443.445 322.669 443.359 322.961 443.359C323.253 443.359 323.474 443.445 323.625 443.617C323.781 443.784 323.859 443.99 323.859 444.234C323.859 444.474 323.781 444.677 323.625 444.844C323.474 445.01 323.253 445.094 322.961 445.094C322.669 445.094 322.445 445.01 322.289 444.844C322.138 444.677 322.062 444.474 322.062 444.234ZM335.086 443.078L337.961 436.547H339.352L335.586 445H334.586L330.836 436.547H332.227L335.086 443.078ZM331.805 436.547V445H330.359V436.547H331.805ZM338.32 445V436.547H339.773V445H338.32Z" fill="#858585"/>
<path id="&#208;&#147;&#208;&#190;&#209;&#129;&#209;&#130;&#208;&#184;&#208;&#189;&#208;&#176;&#209;&#143; 28,35 &#208;&#186;&#208;&#178;. &#208;&#188;" d="M676.578 366.625V367.859H671.094V378H669.594V366.625H676.578ZM676.359 373.867V373.688C676.359 373.078 676.448 372.513 676.625 371.992C676.802 371.466 677.057 371.01 677.391 370.625C677.724 370.234 678.128 369.932 678.602 369.719C679.076 369.5 679.607 369.391 680.195 369.391C680.789 369.391 681.323 369.5 681.797 369.719C682.276 369.932 682.682 370.234 683.016 370.625C683.354 371.01 683.612 371.466 683.789 371.992C683.966 372.513 684.055 373.078 684.055 373.688V373.867C684.055 374.477 683.966 375.042 683.789 375.562C683.612 376.083 683.354 376.539 683.016 376.93C682.682 377.315 682.279 377.617 681.805 377.836C681.336 378.049 680.805 378.156 680.211 378.156C679.617 378.156 679.083 378.049 678.609 377.836C678.135 377.617 677.729 377.315 677.391 376.93C677.057 376.539 676.802 376.083 676.625 375.562C676.448 375.042 676.359 374.477 676.359 373.867ZM677.805 373.688V373.867C677.805 374.289 677.854 374.688 677.953 375.062C678.052 375.432 678.201 375.76 678.398 376.047C678.602 376.333 678.854 376.56 679.156 376.727C679.458 376.888 679.81 376.969 680.211 376.969C680.607 376.969 680.953 376.888 681.25 376.727C681.552 376.56 681.802 376.333 682 376.047C682.198 375.76 682.346 375.432 682.445 375.062C682.549 374.688 682.602 374.289 682.602 373.867V373.688C682.602 373.271 682.549 372.878 682.445 372.508C682.346 372.133 682.195 371.802 681.992 371.516C681.794 371.224 681.544 370.995 681.242 370.828C680.945 370.661 680.596 370.578 680.195 370.578C679.799 370.578 679.451 370.661 679.148 370.828C678.852 370.995 678.602 371.224 678.398 371.516C678.201 371.802 678.052 372.133 677.953 372.508C677.854 372.878 677.805 373.271 677.805 373.688ZM689.25 376.969C689.594 376.969 689.911 376.898 690.203 376.758C690.495 376.617 690.734 376.424 690.922 376.18C691.109 375.93 691.216 375.646 691.242 375.328H692.617C692.591 375.828 692.422 376.294 692.109 376.727C691.802 377.154 691.398 377.5 690.898 377.766C690.398 378.026 689.849 378.156 689.25 378.156C688.615 378.156 688.06 378.044 687.586 377.82C687.117 377.596 686.727 377.289 686.414 376.898C686.107 376.508 685.875 376.06 685.719 375.555C685.568 375.044 685.492 374.505 685.492 373.938V373.609C685.492 373.042 685.568 372.505 685.719 372C685.875 371.49 686.107 371.039 686.414 370.648C686.727 370.258 687.117 369.951 687.586 369.727C688.06 369.503 688.615 369.391 689.25 369.391C689.911 369.391 690.49 369.526 690.984 369.797C691.479 370.062 691.867 370.427 692.148 370.891C692.435 371.349 692.591 371.87 692.617 372.453H691.242C691.216 372.104 691.117 371.789 690.945 371.508C690.779 371.227 690.549 371.003 690.258 370.836C689.971 370.664 689.635 370.578 689.25 370.578C688.807 370.578 688.435 370.667 688.133 370.844C687.836 371.016 687.599 371.25 687.422 371.547C687.25 371.839 687.125 372.164 687.047 372.523C686.974 372.878 686.938 373.24 686.938 373.609V373.938C686.938 374.307 686.974 374.672 687.047 375.031C687.12 375.391 687.242 375.716 687.414 376.008C687.591 376.299 687.828 376.534 688.125 376.711C688.427 376.883 688.802 376.969 689.25 376.969ZM697.688 369.547V378H696.234V369.547H697.688ZM700.523 369.547V370.719H693.453V369.547H700.523ZM703.508 375.711L707.406 369.547H708.859V378H707.406V371.836L703.508 378H702.07V369.547H703.508V375.711ZM716.914 373.211V374.383H712.445V373.211H716.914ZM712.75 369.547V378H711.305V369.547H712.75ZM718.086 369.547V378H716.633V369.547H718.086ZM725.398 376.555V372.203C725.398 371.87 725.331 371.581 725.195 371.336C725.065 371.086 724.867 370.893 724.602 370.758C724.336 370.622 724.008 370.555 723.617 370.555C723.253 370.555 722.932 370.617 722.656 370.742C722.385 370.867 722.172 371.031 722.016 371.234C721.865 371.438 721.789 371.656 721.789 371.891H720.344C720.344 371.589 720.422 371.289 720.578 370.992C720.734 370.695 720.958 370.427 721.25 370.188C721.547 369.943 721.901 369.75 722.312 369.609C722.729 369.464 723.193 369.391 723.703 369.391C724.318 369.391 724.859 369.495 725.328 369.703C725.802 369.911 726.172 370.227 726.438 370.648C726.708 371.065 726.844 371.589 726.844 372.219V376.156C726.844 376.438 726.867 376.737 726.914 377.055C726.966 377.372 727.042 377.646 727.141 377.875V378H725.633C725.56 377.833 725.503 377.612 725.461 377.336C725.419 377.055 725.398 376.794 725.398 376.555ZM725.648 372.875L725.664 373.891H724.203C723.792 373.891 723.424 373.924 723.102 373.992C722.779 374.055 722.508 374.151 722.289 374.281C722.07 374.411 721.904 374.576 721.789 374.773C721.674 374.966 721.617 375.193 721.617 375.453C721.617 375.719 721.677 375.961 721.797 376.18C721.917 376.398 722.096 376.573 722.336 376.703C722.581 376.828 722.88 376.891 723.234 376.891C723.677 376.891 724.068 376.797 724.406 376.609C724.745 376.422 725.013 376.193 725.211 375.922C725.414 375.651 725.523 375.388 725.539 375.133L726.156 375.828C726.12 376.047 726.021 376.289 725.859 376.555C725.698 376.82 725.482 377.076 725.211 377.32C724.945 377.56 724.628 377.76 724.258 377.922C723.893 378.078 723.482 378.156 723.023 378.156C722.451 378.156 721.948 378.044 721.516 377.82C721.089 377.596 720.755 377.297 720.516 376.922C720.281 376.542 720.164 376.117 720.164 375.648C720.164 375.195 720.253 374.797 720.43 374.453C720.607 374.104 720.862 373.815 721.195 373.586C721.529 373.352 721.93 373.174 722.398 373.055C722.867 372.935 723.391 372.875 723.969 372.875H725.648ZM730.828 373.969H732.391L729.945 378H728.383L730.828 373.969ZM732.039 369.547H735.57V378H734.125V370.719H732.039C731.628 370.719 731.292 370.789 731.031 370.93C730.771 371.065 730.581 371.242 730.461 371.461C730.341 371.68 730.281 371.906 730.281 372.141C730.281 372.37 730.336 372.591 730.445 372.805C730.555 373.013 730.727 373.185 730.961 373.32C731.195 373.456 731.497 373.523 731.867 373.523H734.516V374.711H731.867C731.383 374.711 730.953 374.646 730.578 374.516C730.203 374.385 729.885 374.206 729.625 373.977C729.365 373.742 729.167 373.469 729.031 373.156C728.896 372.839 728.828 372.495 728.828 372.125C728.828 371.755 728.898 371.414 729.039 371.102C729.185 370.789 729.393 370.516 729.664 370.281C729.94 370.047 730.276 369.867 730.672 369.742C731.073 369.612 731.529 369.547 732.039 369.547ZM670.398 395.812V397H662.953V395.961L666.68 391.812C667.138 391.302 667.492 390.87 667.742 390.516C667.997 390.156 668.174 389.836 668.273 389.555C668.378 389.268 668.43 388.977 668.43 388.68C668.43 388.305 668.352 387.966 668.195 387.664C668.044 387.357 667.82 387.112 667.523 386.93C667.227 386.747 666.867 386.656 666.445 386.656C665.94 386.656 665.518 386.755 665.18 386.953C664.846 387.146 664.596 387.417 664.43 387.766C664.263 388.115 664.18 388.516 664.18 388.969H662.734C662.734 388.328 662.875 387.742 663.156 387.211C663.438 386.68 663.854 386.258 664.406 385.945C664.958 385.628 665.638 385.469 666.445 385.469C667.164 385.469 667.779 385.596 668.289 385.852C668.799 386.102 669.19 386.456 669.461 386.914C669.737 387.367 669.875 387.898 669.875 388.508C669.875 388.841 669.818 389.18 669.703 389.523C669.594 389.862 669.44 390.201 669.242 390.539C669.049 390.878 668.823 391.211 668.562 391.539C668.307 391.867 668.034 392.19 667.742 392.508L664.695 395.812H670.398ZM679.117 393.922C679.117 394.615 678.956 395.203 678.633 395.688C678.315 396.167 677.883 396.531 677.336 396.781C676.794 397.031 676.182 397.156 675.5 397.156C674.818 397.156 674.203 397.031 673.656 396.781C673.109 396.531 672.677 396.167 672.359 395.688C672.042 395.203 671.883 394.615 671.883 393.922C671.883 393.469 671.969 393.055 672.141 392.68C672.318 392.299 672.565 391.969 672.883 391.688C673.206 391.406 673.586 391.19 674.023 391.039C674.466 390.883 674.953 390.805 675.484 390.805C676.182 390.805 676.805 390.94 677.352 391.211C677.898 391.477 678.328 391.844 678.641 392.312C678.958 392.781 679.117 393.318 679.117 393.922ZM677.664 393.891C677.664 393.469 677.573 393.096 677.391 392.773C677.208 392.445 676.953 392.19 676.625 392.008C676.297 391.826 675.917 391.734 675.484 391.734C675.042 391.734 674.659 391.826 674.336 392.008C674.018 392.19 673.771 392.445 673.594 392.773C673.417 393.096 673.328 393.469 673.328 393.891C673.328 394.328 673.414 394.703 673.586 395.016C673.763 395.323 674.013 395.56 674.336 395.727C674.664 395.888 675.052 395.969 675.5 395.969C675.948 395.969 676.333 395.888 676.656 395.727C676.979 395.56 677.227 395.323 677.398 395.016C677.576 394.703 677.664 394.328 677.664 393.891ZM678.852 388.586C678.852 389.138 678.706 389.635 678.414 390.078C678.122 390.521 677.724 390.87 677.219 391.125C676.714 391.38 676.141 391.508 675.5 391.508C674.849 391.508 674.268 391.38 673.758 391.125C673.253 390.87 672.857 390.521 672.57 390.078C672.284 389.635 672.141 389.138 672.141 388.586C672.141 387.924 672.284 387.362 672.57 386.898C672.862 386.435 673.26 386.081 673.766 385.836C674.271 385.591 674.846 385.469 675.492 385.469C676.143 385.469 676.721 385.591 677.227 385.836C677.732 386.081 678.128 386.435 678.414 386.898C678.706 387.362 678.852 387.924 678.852 388.586ZM677.406 388.609C677.406 388.229 677.326 387.893 677.164 387.602C677.003 387.31 676.779 387.081 676.492 386.914C676.206 386.742 675.872 386.656 675.492 386.656C675.112 386.656 674.779 386.737 674.492 386.898C674.211 387.055 673.99 387.279 673.828 387.57C673.672 387.862 673.594 388.208 673.594 388.609C673.594 389 673.672 389.341 673.828 389.633C673.99 389.924 674.214 390.151 674.5 390.312C674.786 390.474 675.12 390.555 675.5 390.555C675.88 390.555 676.211 390.474 676.492 390.312C676.779 390.151 677.003 389.924 677.164 389.633C677.326 389.341 677.406 389 677.406 388.609ZM682.414 395.281V396.445C682.414 396.919 682.294 397.419 682.055 397.945C681.815 398.477 681.479 398.919 681.047 399.273L680.227 398.703C680.393 398.474 680.534 398.24 680.648 398C680.763 397.766 680.849 397.521 680.906 397.266C680.969 397.016 681 396.75 681 396.469V395.281H682.414ZM686.211 390.602H687.242C687.747 390.602 688.164 390.518 688.492 390.352C688.826 390.18 689.073 389.948 689.234 389.656C689.401 389.359 689.484 389.026 689.484 388.656C689.484 388.219 689.411 387.852 689.266 387.555C689.12 387.258 688.901 387.034 688.609 386.883C688.318 386.732 687.948 386.656 687.5 386.656C687.094 386.656 686.734 386.737 686.422 386.898C686.115 387.055 685.872 387.279 685.695 387.57C685.523 387.862 685.438 388.206 685.438 388.602H683.992C683.992 388.023 684.138 387.497 684.43 387.023C684.721 386.549 685.13 386.172 685.656 385.891C686.188 385.609 686.802 385.469 687.5 385.469C688.188 385.469 688.789 385.591 689.305 385.836C689.82 386.076 690.221 386.435 690.508 386.914C690.794 387.388 690.938 387.979 690.938 388.688C690.938 388.974 690.87 389.281 690.734 389.609C690.604 389.932 690.398 390.234 690.117 390.516C689.841 390.797 689.482 391.029 689.039 391.211C688.596 391.388 688.065 391.477 687.445 391.477H686.211V390.602ZM686.211 391.789V390.922H687.445C688.169 390.922 688.768 391.008 689.242 391.18C689.716 391.352 690.089 391.581 690.359 391.867C690.635 392.154 690.828 392.469 690.938 392.812C691.052 393.151 691.109 393.49 691.109 393.828C691.109 394.359 691.018 394.831 690.836 395.242C690.659 395.654 690.406 396.003 690.078 396.289C689.755 396.576 689.375 396.792 688.938 396.938C688.5 397.083 688.023 397.156 687.508 397.156C687.013 397.156 686.547 397.086 686.109 396.945C685.677 396.805 685.294 396.602 684.961 396.336C684.628 396.065 684.367 395.734 684.18 395.344C683.992 394.948 683.898 394.497 683.898 393.992H685.344C685.344 394.388 685.43 394.734 685.602 395.031C685.779 395.328 686.029 395.56 686.352 395.727C686.68 395.888 687.065 395.969 687.508 395.969C687.951 395.969 688.331 395.893 688.648 395.742C688.971 395.586 689.219 395.352 689.391 395.039C689.568 394.727 689.656 394.333 689.656 393.859C689.656 393.385 689.557 392.997 689.359 392.695C689.161 392.388 688.88 392.161 688.516 392.016C688.156 391.865 687.732 391.789 687.242 391.789H686.211ZM694.93 391.586L693.773 391.289L694.344 385.625H700.18V386.961H695.57L695.227 390.055C695.435 389.935 695.698 389.823 696.016 389.719C696.339 389.615 696.708 389.562 697.125 389.562C697.651 389.562 698.122 389.654 698.539 389.836C698.956 390.013 699.31 390.268 699.602 390.602C699.898 390.935 700.125 391.336 700.281 391.805C700.438 392.273 700.516 392.797 700.516 393.375C700.516 393.922 700.44 394.424 700.289 394.883C700.143 395.341 699.922 395.742 699.625 396.086C699.328 396.424 698.953 396.688 698.5 396.875C698.052 397.062 697.523 397.156 696.914 397.156C696.456 397.156 696.021 397.094 695.609 396.969C695.203 396.839 694.839 396.643 694.516 396.383C694.198 396.117 693.938 395.789 693.734 395.398C693.536 395.003 693.411 394.539 693.359 394.008H694.734C694.797 394.435 694.922 394.794 695.109 395.086C695.297 395.378 695.542 395.599 695.844 395.75C696.151 395.896 696.508 395.969 696.914 395.969C697.258 395.969 697.562 395.909 697.828 395.789C698.094 395.669 698.318 395.497 698.5 395.273C698.682 395.049 698.82 394.779 698.914 394.461C699.013 394.143 699.062 393.786 699.062 393.391C699.062 393.031 699.013 392.698 698.914 392.391C698.815 392.083 698.667 391.815 698.469 391.586C698.276 391.357 698.039 391.18 697.758 391.055C697.477 390.924 697.154 390.859 696.789 390.859C696.305 390.859 695.938 390.924 695.688 391.055C695.443 391.185 695.19 391.362 694.93 391.586ZM707.797 388.547V397H706.352V388.547H707.797ZM713.344 388.547L709.336 393.391H707.312L707.094 392.125H708.75L711.586 388.547H713.344ZM711.789 397L708.68 393.172L709.609 392.125L713.625 397H711.789ZM718.852 393.281H716.078L716.062 392.125H718.328C718.776 392.125 719.148 392.081 719.445 391.992C719.747 391.904 719.974 391.771 720.125 391.594C720.276 391.417 720.352 391.198 720.352 390.938C720.352 390.734 720.307 390.557 720.219 390.406C720.135 390.25 720.008 390.122 719.836 390.023C719.664 389.919 719.451 389.844 719.195 389.797C718.945 389.745 718.651 389.719 718.312 389.719H716.461V397H715.016V388.547H718.312C718.849 388.547 719.331 388.594 719.758 388.688C720.19 388.781 720.557 388.924 720.859 389.117C721.167 389.305 721.401 389.544 721.562 389.836C721.724 390.128 721.805 390.471 721.805 390.867C721.805 391.122 721.753 391.365 721.648 391.594C721.544 391.823 721.391 392.026 721.188 392.203C720.984 392.38 720.734 392.526 720.438 392.641C720.141 392.75 719.799 392.82 719.414 392.852L718.852 393.281ZM718.852 397H715.555L716.273 395.828H718.852C719.253 395.828 719.586 395.779 719.852 395.68C720.117 395.576 720.315 395.43 720.445 395.242C720.581 395.049 720.648 394.82 720.648 394.555C720.648 394.289 720.581 394.062 720.445 393.875C720.315 393.682 720.117 393.536 719.852 393.438C719.586 393.333 719.253 393.281 718.852 393.281H716.656L716.672 392.125H719.414L719.938 392.562C720.401 392.599 720.794 392.714 721.117 392.906C721.44 393.099 721.685 393.344 721.852 393.641C722.018 393.932 722.102 394.25 722.102 394.594C722.102 394.99 722.026 395.339 721.875 395.641C721.729 395.943 721.516 396.195 721.234 396.398C720.953 396.596 720.612 396.747 720.211 396.852C719.81 396.951 719.357 397 718.852 397ZM724.062 396.234C724.062 395.99 724.138 395.784 724.289 395.617C724.445 395.445 724.669 395.359 724.961 395.359C725.253 395.359 725.474 395.445 725.625 395.617C725.781 395.784 725.859 395.99 725.859 396.234C725.859 396.474 725.781 396.677 725.625 396.844C725.474 397.01 725.253 397.094 724.961 397.094C724.669 397.094 724.445 397.01 724.289 396.844C724.138 396.677 724.062 396.474 724.062 396.234ZM737.086 395.078L739.961 388.547H741.352L737.586 397H736.586L732.836 388.547H734.227L737.086 395.078ZM733.805 388.547V397H732.359V388.547H733.805ZM740.32 397V388.547H741.773V397H740.32Z" fill="#858585"/>
<path id="Vector 134" d="M458.5 273.5H459H458.5ZM458.146 317.854C458.342 318.049 458.658 318.049 458.854 317.854L462.036 314.672C462.231 314.476 462.231 314.16 462.036 313.965C461.84 313.769 461.524 313.769 461.328 313.965L458.5 316.793L455.672 313.965C455.476 313.769 455.16 313.769 454.964 313.965C454.769 314.16 454.769 314.476 454.964 314.672L458.146 317.854ZM459 317.5V316.5H458V317.5H459ZM459 314.5V312.5H458V314.5H459ZM459 310.5V308.5H458V310.5H459ZM459 306.5V304.5H458V306.5H459ZM459 302.5V300.5H458V302.5H459ZM459 298.5V296.5H458V298.5H459ZM459 294.5V292.5H458V294.5H459ZM459 290.5V288.5H458V290.5H459ZM459 286.5V284.5H458V286.5H459ZM459 282.5V280.5H458V282.5H459ZM459 278.5V276.5H458V278.5H459ZM459 274.5V273.5H458V274.5H459ZM459 273.5C459 273.157 459.005 272.818 459.015 272.481L458.016 272.45C458.005 272.797 458 273.147 458 273.5H459ZM459.138 270.498C459.201 269.823 459.285 269.162 459.39 268.514L458.402 268.355C458.294 269.025 458.207 269.709 458.142 270.405L459.138 270.498ZM459.771 266.578C459.924 265.92 460.1 265.276 460.297 264.647L459.342 264.349C459.138 265.001 458.956 265.669 458.797 266.351L459.771 266.578ZM460.958 262.777C461.204 262.157 461.472 261.553 461.759 260.964L460.861 260.525C460.562 261.137 460.284 261.764 460.029 262.408L460.958 262.777ZM462.702 259.21C463.039 258.637 463.396 258.081 463.773 257.54L462.952 256.969C462.561 257.53 462.19 258.108 461.84 258.703L462.702 259.21ZM464.969 255.955C465.389 255.44 465.827 254.943 466.283 254.462L465.557 253.774C465.085 254.273 464.63 254.789 464.195 255.323L464.969 255.955ZM467.701 253.068C468.191 252.62 468.696 252.189 469.217 251.775L468.594 250.993C468.056 251.421 467.533 251.867 467.026 252.33L467.701 253.068ZM470.815 250.588C471.36 250.21 471.918 249.849 472.489 249.505L471.973 248.648C471.384 249.004 470.808 249.376 470.245 249.766L470.815 250.588ZM474.229 248.525C474.817 248.218 475.415 247.926 476.022 247.651L475.61 246.74C474.985 247.023 474.37 247.323 473.765 247.64L474.229 248.525ZM477.866 246.878C478.486 246.638 479.114 246.414 479.749 246.205L479.438 245.255C478.786 245.469 478.141 245.699 477.505 245.945L477.866 246.878ZM481.664 245.633C482.307 245.458 482.956 245.299 483.609 245.156L483.396 244.179C482.726 244.326 482.061 244.489 481.402 244.668L481.664 245.633ZM485.574 244.776C486.231 244.666 486.892 244.571 487.556 244.491L487.437 243.498C486.758 243.58 486.081 243.677 485.408 243.79L485.574 244.776ZM489.55 244.3C490.215 244.251 490.882 244.219 491.55 244.202L491.524 243.202C490.841 243.219 490.159 243.253 489.478 243.302L489.55 244.3ZM493.553 244.197C494.221 244.21 494.888 244.24 495.553 244.285L495.62 243.287C494.939 243.241 494.257 243.211 493.574 243.197L493.553 244.197ZM497.548 244.466C498.212 244.543 498.874 244.635 499.531 244.743L499.693 243.756C499.019 243.645 498.342 243.551 497.663 243.473L497.548 244.466ZM501.497 245.114C502.151 245.255 502.8 245.411 503.444 245.583L503.702 244.617C503.043 244.441 502.377 244.28 501.707 244.136L501.497 245.114ZM505.36 246.15C505.996 246.357 506.624 246.579 507.244 246.818L507.604 245.885C506.967 245.639 506.321 245.411 505.669 245.199L505.36 246.15ZM509.089 247.588C509.697 247.863 510.295 248.154 510.882 248.461L511.346 247.576C510.742 247.259 510.126 246.959 509.5 246.677L509.089 247.588ZM512.621 249.441C513.191 249.786 513.749 250.148 514.293 250.527L514.865 249.706C514.303 249.315 513.727 248.941 513.138 248.585L512.621 249.441ZM515.888 251.718C516.407 252.133 516.911 252.566 517.398 253.015L518.076 252.281C517.571 251.815 517.05 251.367 516.513 250.937L515.888 251.718ZM518.809 254.415C519.262 254.898 519.697 255.398 520.114 255.916L520.893 255.288C520.46 254.751 520.008 254.232 519.539 253.732L518.809 254.415ZM521.301 257.509C521.673 258.051 522.027 258.61 522.36 259.185L523.225 258.684C522.879 258.086 522.512 257.506 522.125 256.943L521.301 257.509ZM523.29 260.945C523.574 261.536 523.837 262.142 524.08 262.765L525.011 262.402C524.76 261.756 524.486 261.126 524.192 260.512L523.29 260.945ZM524.73 264.638C524.923 265.268 525.096 265.914 525.246 266.575L526.221 266.352C526.065 265.668 525.886 264.999 525.686 264.345L524.73 264.638ZM525.619 268.511C525.721 269.159 525.804 269.82 525.865 270.495L526.861 270.405C526.798 269.708 526.713 269.025 526.607 268.355L525.619 268.511ZM525.985 272.48C525.995 272.817 526 273.157 526 273.5H527C527 273.147 526.995 272.797 526.984 272.45L525.985 272.48ZM526 273.5V274.406H527V273.5H526ZM526 276.219V278.031H527V276.219H526ZM526 279.844V281.656H527V279.844H526ZM526 283.469V285.281H527V283.469H526ZM526 287.094V288H527V287.094H526Z" fill="black"/>
<path id="Vector 130" d="M162 585V584.75H161.75V585H162ZM162 827H161.75V827.25H162V827ZM433 827V827.25H433.25V827H433ZM433 728V727.75H432.75V728H433ZM860 728V728.25H860.25V728H860ZM860 585H860.25V584.75H860V585ZM332 113V112.75H331.75V113H332ZM433 113H433.25V112.75H433V113ZM165.25 824H165V824.25H165.25V824ZM430 824V824.25H430.25V824H430ZM430 725V724.75H429.75V725H430ZM856.5 725V725.25H856.75V725H856.5ZM163.75 570C163.75 569.862 163.638 569.75 163.5 569.75C163.362 569.75 163.25 569.862 163.25 570H163.75ZM165.5 570C165.5 569.862 165.388 569.75 165.25 569.75C165.112 569.75 165 569.862 165 570H165.5ZM858.5 585H858.25V585.25H858.5V585ZM858.5 570H858.75V569.75H858.5V570ZM856.5 570V569.75H856.25V570H856.5ZM161.75 585V827H162.25V585H161.75ZM162 827.25H433V826.75H162V827.25ZM433.25 827V728H432.75V827H433.25ZM433 728.25H860V727.75H433V728.25ZM860.25 728V585H859.75V728H860.25ZM332.25 190V113H331.75V190H332.25ZM332 113.25H433V112.75H332V113.25ZM432.75 113V190H433.25V113H432.75ZM165 585V824H165.5V585H165ZM165.25 824.25H430V823.75H165.25V824.25ZM430.25 824V725H429.75V824H430.25ZM430 725.25H856.5V724.75H430V725.25ZM856.75 725V585H856.25V725H856.75ZM163.5 584.75H162V585.25H163.5V584.75ZM163.75 585V570H163.25V585H163.75ZM165.25 584.75H163.5V585.25H165.25V584.75ZM165 570V585H165.5V570H165ZM860 584.75H858.5V585.25H860V584.75ZM858.75 585V570H858.25V585H858.75ZM858.5 569.75H856.5V570.25H858.5V569.75ZM856.25 570V585H856.75V570H856.25Z" fill="black"/>
<path id="Vector 131" d="M499 348.5V363.5H555.5V348.5M499 348.5H555.5M499 348.5V334M555.5 348.5V334M499 334H555.5M499 334V317.75M555.5 334V317.75M499 317.75H555.5M499 317.75V303M555.5 317.75V303M499 303V301.5L525.236 288.5M499 303H555.5M555.5 303V288.5M555.5 288.5V274L525.236 288.5M555.5 288.5H525.236" stroke="black" stroke-width="0.5"/>
<path id="Vector 132" d="M526 363.5V288" stroke="black"/>
<path id="Vector 133" d="M499 301.5V289M487 303V317.5H430.5V303M487 303H430.5M487 303V289M430.5 303V289M487 289H430.5M487 289V274.5M430.5 289V274.5M487 274.5H430.5M487 274.5V272.25M430.5 274.5V244M487 272.25V270H489M487 272.25L430.5 244M430.5 244V222H457M489 270L457 222M489 270H493M457 222H461H493.25M493 270L493.25 222M493 270H496M493.25 222H525.5H529.5M496 270H499V272.25M496 270L529.5 222M529.5 222H555.5V243M499 272.25L555.5 243M499 272.25V274.5M555.5 243V274L499 274.5M499 274.5V289M499 289H524.5" stroke="black" stroke-width="0.5" stroke-dasharray="2 2"/>
<g id="Group 205">
<path id="Vector 101" d="M439 191H567" stroke="black" stroke-width="0.5"/>
<path id="Vector 102" d="M439 201.833H567" stroke="black" stroke-width="0.5"/>
<path id="Vector 103" d="M439 206.722H567" stroke="black" stroke-width="0.5"/>
<path id="Vector 104" d="M567 222H439.842" stroke="black" stroke-width="0.5"/>
</g>
<g id="Group 209">
<path id="Vector 101_2" d="M147.5 328.5L147.5 200.5" stroke="black" stroke-width="0.5"/>
<path id="Vector 102_2" d="M160.333 328.5L160.333 200.5" stroke="black" stroke-width="0.5"/>
<path id="Vector 103_2" d="M165.222 328.5L165.222 200.5" stroke="black" stroke-width="0.5"/>
<path id="Vector 104_2" d="M177.5 201.5L177.5 328.658" stroke="black" stroke-width="0.5"/>
</g>
<g id="Group 210">
<path id="Vector 101_3" d="M74 452.049L74 364" stroke="black" stroke-width="0.5"/>
<path id="Vector 102_3" d="M86.8333 452.049L86.8333 364" stroke="black" stroke-width="0.5"/>
<path id="Vector 103_3" d="M91.7222 452.049L91.7222 364" stroke="black" stroke-width="0.5"/>
<path id="Vector 104_3" d="M105 364.688L105 452.158" stroke="black" stroke-width="0.5"/>
</g>
<g id="Group 211">
<path id="Vector 101_4" d="M918 452.049V364" stroke="black" stroke-width="0.5"/>
<path id="Vector 102_4" d="M930.833 452.049V364" stroke="black" stroke-width="0.5"/>
<path id="Vector 103_4" d="M935.722 452.049V364" stroke="black" stroke-width="0.5"/>
<path id="Vector 104_4" d="M950 364.688V452.158" stroke="black" stroke-width="0.5"/>
</g>
<g id="Group 212">
<path id="Vector 101_5" d="M875.177 477.162L914.272 456.826" stroke="black" stroke-width="0.5"/>
<path id="Vector 102_5" d="M880.605 487.598L919.7 467.262" stroke="black" stroke-width="0.5"/>
<path id="Vector 103_5" d="M882.673 491.573L921.768 471.238" stroke="black" stroke-width="0.5"/>
<path id="Vector 104_5" d="M927.502 483.007L888.665 503.209" stroke="black" stroke-width="0.5"/>
</g>
<g id="Group 215">
<path id="Vector 101_6" d="M147.63 478.335L108.535 458" stroke="black" stroke-width="0.5"/>
<path id="Vector 102_6" d="M142.202 488.771L103.107 468.436" stroke="black" stroke-width="0.5"/>
<path id="Vector 103_6" d="M140.134 492.747L101.039 472.411" stroke="black" stroke-width="0.5"/>
<path id="Vector 104_6" d="M95.3052 482.181L134.142 502.382" stroke="black" stroke-width="0.5"/>
</g>
<g id="Group 213">
<path id="Vector 101_7" d="M875.177 351.047L914.272 371.382" stroke="black" stroke-width="0.5"/>
<path id="Vector 102_7" d="M880.605 341.611L919.7 361.947" stroke="black" stroke-width="0.5"/>
<path id="Vector 103_7" d="M882.673 337.636L921.768 357.971" stroke="black" stroke-width="0.5"/>
<path id="Vector 104_7" d="M927.502 346.202L888.665 326" stroke="black" stroke-width="0.5"/>
</g>
<g id="Group 214">
<path id="Vector 101_8" d="M145.63 353.047L106.536 373.382" stroke="black" stroke-width="0.5"/>
<path id="Vector 102_8" d="M140.202 343.611L101.107 363.947" stroke="black" stroke-width="0.5"/>
<path id="Vector 103_8" d="M138.134 339.636L99.0396 359.971" stroke="black" stroke-width="0.5"/>
<path id="Vector 104_8" d="M93.3054 348.202L132.143 328" stroke="black" stroke-width="0.5"/>
</g>
<g id="Group 206">
<path id="Vector 101_9" d="M846 299L846 231" stroke="black" stroke-width="0.5"/>
<path id="Vector 102_9" d="M857.833 299.5V229.5" stroke="black" stroke-width="0.5"/>
<path id="Vector 103_9" d="M862.722 299.5V203" stroke="black" stroke-width="0.5"/>
<path id="Vector 104_9" d="M876.5 228.5V300.5" stroke="black" stroke-width="0.5"/>
</g>
<g id="Group 207">
<path id="Vector 101_10" d="M600 539H799" stroke="black" stroke-width="0.5"/>
<path id="Vector 102_10" d="M599 552H798" stroke="black" stroke-width="0.5"/>
<path id="Vector 103_10" d="M599 557H798" stroke="black" stroke-width="0.5"/>
<path id="Vector 104_10" d="M799 569H598" stroke="black" stroke-width="0.5"/>
</g>
<g id="Group 208">
<path id="Vector 101_11" d="M200 539H399" stroke="black" stroke-width="0.5"/>
<path id="Vector 102_11" d="M199 552H398" stroke="black" stroke-width="0.5"/>
<path id="Vector 103_11" d="M199 557H398" stroke="black" stroke-width="0.5"/>
<path id="Vector 104_11" d="M399 569H198" stroke="black" stroke-width="0.5"/>
</g>
<g id="door">
<g id="door1">
<path id="Vector 1" d="M413.155 201.329C413.155 176.189 385.62 149.037 355.133 149.037" stroke="black" stroke-width="0.5" stroke-dasharray="2 2"/>
</g>
<path id="Vector 37" d="M412.282 201.184H414V210.037H411.137V204.504H412.282V201.184Z" stroke="black" stroke-width="0.5"/>
<path id="Vector 38" d="M350.718 201.184H349V210.037H351.863V204.504H350.718V201.184Z" stroke="black" stroke-width="0.5"/>
<rect id="Rectangle 24" x="0.249972" y="0.244504" width="2.31376" height="55.8271" transform="matrix(0.999758 -0.0219859 0.000131291 1 352.003 149.067)" stroke="black" stroke-width="0.5"/>
</g>
<g id="door_2">
<g id="door1_2">
<path id="Vector 1_2" d="M362.624 322.431C362.624 340.996 382.958 361.046 405.471 361.046" stroke="black" stroke-width="0.5" stroke-dasharray="2 2"/>
</g>
<path id="Vector 37_2" d="M363.268 322.538H362V315H364.114V320.086H363.268V322.538Z" stroke="black" stroke-width="0.5"/>
<path id="Vector 38_2" d="M408.732 322.538H410V315H407.886V320.086H408.732V322.538Z" stroke="black" stroke-width="0.5"/>
<rect id="Rectangle 24_2" x="-0.249972" y="-0.244504" width="1.57785" height="41.0954" transform="matrix(-0.999758 0.0219859 -0.000131291 -1 407.282 360.544)" stroke="black" stroke-width="0.5"/>
</g>
<g id="door_3">
<g id="door1_3">
<path id="Vector 1_3" d="M473.845 558.708C473.845 583.848 501.38 611 531.867 611" stroke="black" stroke-width="0.5" stroke-dasharray="2 2"/>
</g>
<path id="Vector 37_3" d="M474.718 558.853H473V550H475.863V555.533H474.718V558.853Z" stroke="black" stroke-width="0.5"/>
<path id="Vector 38_3" d="M536.282 558.853H538V550H535.137V555.533H536.282V558.853Z" stroke="black" stroke-width="0.5"/>
<rect id="Rectangle 24_3" x="-0.249972" y="-0.244504" width="2.31376" height="55.8271" transform="matrix(-0.999758 0.0219859 -0.000131291 -1 534.497 610.492)" stroke="black" stroke-width="0.5"/>
</g>
<g id="door_4">
<g id="door1_4">
<path id="Vector 1_4" d="M305.405 260.525C309.305 255.143 325.882 247.802 332.707 247.802" stroke="black" stroke-width="0.5" stroke-dasharray="2 2"/>
</g>
<path id="Vector 37_4" d="M331.213 293.413V295.184H339.5V292.232H334.742V293.413H331.213Z" stroke="black" stroke-width="0.5"/>
<path id="Vector 38_4" d="M331.213 247.234V245.463H339.5V248.415H334.742V247.234H331.213Z" stroke="black" stroke-width="0.5"/>
<rect id="Rectangle 24_4" x="-0.352896" width="2.43068" height="43.4602" transform="matrix(-0.705792 0.70842 -0.705792 -0.70842 336.493 290.996)" stroke="black" stroke-width="0.5"/>
</g>
<rect id="Rectangle 349" x="160.25" y="233.25" width="4.5" height="2.5" stroke="black" stroke-width="0.5"/>
<rect id="Rectangle 365" x="461.25" y="206.75" width="4.5" height="2.5" transform="rotate(-90 461.25 206.75)" stroke="black" stroke-width="0.5"/>
<rect id="Rectangle 366" x="523.25" y="206.75" width="4.5" height="2.5" transform="rotate(-90 523.25 206.75)" stroke="black" stroke-width="0.5"/>
<rect id="Rectangle 367" x="231.25" y="556.75" width="4.5" height="2.5" transform="rotate(-90 231.25 556.75)" stroke="black" stroke-width="0.5"/>
<rect id="Rectangle 371" x="668.25" y="556.75" width="4.5" height="2.5" transform="rotate(-90 668.25 556.75)" stroke="black" stroke-width="0.5"/>
<rect id="Rectangle 375" x="665.25" y="556.75" width="4.5" height="2.5" transform="rotate(-90 665.25 556.75)" stroke="black" stroke-width="0.5"/>
<rect id="Rectangle 376" x="603.25" y="556.75" width="4.5" height="2.5" transform="rotate(-90 603.25 556.75)" stroke="black" stroke-width="0.5"/>
<rect id="Rectangle 368" x="290.25" y="556.75" width="4.5" height="2.5" transform="rotate(-90 290.25 556.75)" stroke="black" stroke-width="0.5"/>
<rect id="Rectangle 372" x="727.25" y="556.75" width="4.5" height="2.5" transform="rotate(-90 727.25 556.75)" stroke="black" stroke-width="0.5"/>
<rect id="Rectangle 370" x="293.25" y="556.75" width="4.5" height="2.5" transform="rotate(-90 293.25 556.75)" stroke="black" stroke-width="0.5"/>
<rect id="Rectangle 373" x="730.25" y="556.75" width="4.5" height="2.5" transform="rotate(-90 730.25 556.75)" stroke="black" stroke-width="0.5"/>
<rect id="Rectangle 369" x="353.25" y="556.75" width="4.5" height="2.5" transform="rotate(-90 353.25 556.75)" stroke="black" stroke-width="0.5"/>
<rect id="Rectangle 374" x="792.25" y="556.75" width="4.5" height="2.5" transform="rotate(-90 792.25 556.75)" stroke="black" stroke-width="0.5"/>
<rect id="Rectangle 350" x="160.25" y="294.25" width="4.5" height="2.5" stroke="black" stroke-width="0.5"/>
<rect id="Rectangle 351" x="131.565" y="343.336" width="4.5" height="2.5" transform="rotate(63.0453 131.565 343.336)" stroke="black" stroke-width="0.5"/>
<rect id="Rectangle 353" x="87.25" y="381.25" width="4.5" height="2.5" stroke="black" stroke-width="0.5"/>
<rect id="Rectangle 354" x="87.25" y="446.25" width="4.5" height="2.5" stroke="black" stroke-width="0.5"/>
<rect id="Rectangle 357" x="858.25" y="232.25" width="4.5" height="2.5" stroke="black" stroke-width="0.5"/>
<rect id="Rectangle 358" x="858.25" y="294.25" width="4.5" height="2.5" stroke="black" stroke-width="0.5"/>
<rect id="Rectangle 361" x="931.25" y="381.25" width="4.5" height="2.5" stroke="black" stroke-width="0.5"/>
<rect id="Rectangle 362" x="931.25" y="445.25" width="4.5" height="2.5" stroke="black" stroke-width="0.5"/>
<rect id="Rectangle 363" x="915.584" y="469.334" width="4.5" height="2.5" transform="rotate(64.1749 915.584 469.334)" stroke="black" stroke-width="0.5"/>
<rect id="Rectangle 364" x="892.584" y="481.334" width="4.5" height="2.5" transform="rotate(64.1749 892.584 481.334)" stroke="black" stroke-width="0.5"/>
<rect id="Rectangle 359" x="891.332" y="347.42" width="4.5" height="2.5" transform="rotate(-65.294 891.332 347.42)" stroke="black" stroke-width="0.5"/>
<rect id="Rectangle 360" x="913.332" y="358.42" width="4.5" height="2.5" transform="rotate(-65.294 913.332 358.42)" stroke="black" stroke-width="0.5"/>
<rect id="Rectangle 355" x="105.334" y="474.388" width="4.5" height="2.5" transform="rotate(-64.2914 105.334 474.388)" stroke="black" stroke-width="0.5"/>
<rect id="Rectangle 356" x="128.334" y="486.388" width="4.5" height="2.5" transform="rotate(-64.2914 128.334 486.388)" stroke="black" stroke-width="0.5"/>
<rect id="Rectangle 352" x="108.565" y="355.336" width="4.5" height="2.5" transform="rotate(63.0453 108.565 355.336)" stroke="black" stroke-width="0.5"/>
<g id="Vector 129">
<path d="M74 449V472.5L100 486L112.5 459.5L105 455V449H74Z" fill="#858585"/>
<path d="M138 505L126 498.5L137 472.5H178V538.5H230.5V569.5H162H147V505H138Z" fill="#858585"/>
<path d="M105 381H74V359L100 344.5L112.5 371L105 376V381Z" fill="#858585"/>
<path d="M138 356.5L126 331L135.5 325.5H147V297H178V314.5H331.5V295.5H339.5V314.5H361.5V322.5H178V356.5H138Z" fill="#858585"/>
<path d="M178 232.5H147V190.5H349V221.5H339.5V245H331.5V221.5H178V232.5Z" fill="#858585"/>
<path d="M414.5 221.5V190.5H461V221.5H430.5V342.5H422.5V322.5H410.5V314.5H422.5V221.5H414.5Z" fill="#858585"/>
<path d="M526 221.5V190.5L877 191V232H846V221.5H563.5V394.5H555.5V221.5H526Z" fill="#858585"/>
<path d="M877 297H846V357H886.5L899.5 331.5L886.5 325H877V297Z" fill="#858585"/>
<path d="M923.5 344L910 371L917.5 378V381H950V358.5L923.5 344Z" fill="#858585"/>
<path d="M950 448.5H917.5V452.5L910 457.5L923.5 485.5L950 472V448.5Z" fill="#858585"/>
<path d="M885 472L897.5 498.5L885 505H877V569.5H859H795V538.5H846V472H885Z" fill="#858585"/>
<path d="M603 569.5V538.5H538V569.5H603Z" fill="#858585"/>
<path d="M472.5 569.5V538.5H431V520.5H422.5V538.5H356.5V569.5H472.5Z" fill="#858585"/>
<path d="M74 449V472.5L100 486L112.5 459.5L105 455V449H74Z" stroke="black"/>
<path d="M138 505L126 498.5L137 472.5H178V538.5H230.5V569.5H162H147V505H138Z" stroke="black"/>
<path d="M105 381H74V359L100 344.5L112.5 371L105 376V381Z" stroke="black"/>
<path d="M138 356.5L126 331L135.5 325.5H147V297H178V314.5H331.5V295.5H339.5V314.5H361.5V322.5H178V356.5H138Z" stroke="black"/>
<path d="M178 232.5H147V190.5H349V221.5H339.5V245H331.5V221.5H178V232.5Z" stroke="black"/>
<path d="M414.5 221.5V190.5H461V221.5H430.5V342.5H422.5V322.5H410.5V314.5H422.5V221.5H414.5Z" stroke="black"/>
<path d="M526 221.5V190.5L877 191V232H846V221.5H563.5V394.5H555.5V221.5H526Z" stroke="black"/>
<path d="M877 297H846V357H886.5L899.5 331.5L886.5 325H877V297Z" stroke="black"/>
<path d="M923.5 344L910 371L917.5 378V381H950V358.5L923.5 344Z" stroke="black"/>
<path d="M950 448.5H917.5V452.5L910 457.5L923.5 485.5L950 472V448.5Z" stroke="black"/>
<path d="M885 472L897.5 498.5L885 505H877V569.5H859H795V538.5H846V472H885Z" stroke="black"/>
<path d="M603 569.5V538.5H538V569.5H603Z" stroke="black"/>
<path d="M472.5 569.5V538.5H431V520.5H422.5V538.5H356.5V569.5H472.5Z" stroke="black"/>
</g>
<g id="Group 244">
<path id="Rectangle 446" d="M163.75 583.25H165.25V584.75H163.75V583.25Z" stroke="black" stroke-width="0.5"/>
<path id="Rectangle 467" d="M856.75 583.25H858.25V584.75H856.75V583.25Z" stroke="black" stroke-width="0.5"/>
<path id="Rectangle 466" d="M163.75 570.25H165.25V571.75H163.75V570.25Z" stroke="black" stroke-width="0.5"/>
<path id="Rectangle 468" d="M856.75 570.25H858.25V571.75H856.75V570.25Z" stroke="black" stroke-width="0.5"/>
<path id="Rectangle 447" d="M161.25 598.25H162.75V599.75H161.25V598.25Z" stroke="black" stroke-width="0.5"/>
<path id="Rectangle 448" d="M161.25 611.25H162.75V612.75H161.25V611.25Z" stroke="black" stroke-width="0.5"/>
<path id="Rectangle 449" d="M161.25 624.25H162.75V625.75H161.25V624.25Z" stroke="black" stroke-width="0.5"/>
<path id="Rectangle 450" d="M161.25 637.25H162.75V638.75H161.25V637.25Z" stroke="black" stroke-width="0.5"/>
<path id="Rectangle 451" d="M161.25 650.25H162.75V651.75H161.25V650.25Z" stroke="black" stroke-width="0.5"/>
<path id="Rectangle 452" d="M161.25 663.25H162.75V664.75H161.25V663.25Z" stroke="black" stroke-width="0.5"/>
<path id="Rectangle 453" d="M161.25 676.25H162.75V677.75H161.25V676.25Z" stroke="black" stroke-width="0.5"/>
<path id="Rectangle 454" d="M161.25 689.25H162.75V690.75H161.25V689.25Z" stroke="black" stroke-width="0.5"/>
<path id="Rectangle 455" d="M161.25 702.25H162.75V703.75H161.25V702.25Z" stroke="black" stroke-width="0.5"/>
<path id="Rectangle 456" d="M161.25 715.25H162.75V716.75H161.25V715.25Z" stroke="black" stroke-width="0.5"/>
<path id="Rectangle 457" d="M161.25 728.25H162.75V729.75H161.25V728.25Z" stroke="black" stroke-width="0.5"/>
<path id="Rectangle 458" d="M161.25 741.25H162.75V742.75H161.25V741.25Z" stroke="black" stroke-width="0.5"/>
<path id="Rectangle 459" d="M161.25 754.25H162.75V755.75H161.25V754.25Z" stroke="black" stroke-width="0.5"/>
<path id="Rectangle 460" d="M161.25 767.25H162.75V768.75H161.25V767.25Z" stroke="black" stroke-width="0.5"/>
<path id="Rectangle 461" d="M161.25 780.25H162.75V781.75H161.25V780.25Z" stroke="black" stroke-width="0.5"/>
<path id="Rectangle 462" d="M161.25 793.25H162.75V794.75H161.25V793.25Z" stroke="black" stroke-width="0.5"/>
<path id="Rectangle 463" d="M161.25 806.25H162.75V807.75H161.25V806.25Z" stroke="black" stroke-width="0.5"/>
<path id="Rectangle 464" d="M161.25 819.25H162.75V820.75H161.25V819.25Z" stroke="black" stroke-width="0.5"/>
<path id="Rectangle 465" d="M161.25 826.25H162.75V827.75H161.25V826.25Z" stroke="black" stroke-width="0.5"/>
<path id="Rectangle 469" d="M174.25 826.25H175.75V827.75H174.25V826.25Z" stroke="black" stroke-width="0.5"/>
<path id="Rectangle 470" d="M187.25 826.25H188.75V827.75H187.25V826.25Z" stroke="black" stroke-width="0.5"/>
<path id="Rectangle 471" d="M200.25 826.25H201.75V827.75H200.25V826.25Z" stroke="black" stroke-width="0.5"/>
<path id="Rectangle 472" d="M213.25 826.25H214.75V827.75H213.25V826.25Z" stroke="black" stroke-width="0.5"/>
<path id="Rectangle 473" d="M226.25 826.25H227.75V827.75H226.25V826.25Z" stroke="black" stroke-width="0.5"/>
<path id="Rectangle 474" d="M239.25 826.25H240.75V827.75H239.25V826.25Z" stroke="black" stroke-width="0.5"/>
<path id="Rectangle 475" d="M252.25 826.25H253.75V827.75H252.25V826.25Z" stroke="black" stroke-width="0.5"/>
<path id="Rectangle 476" d="M265.25 826.25H266.75V827.75H265.25V826.25Z" stroke="black" stroke-width="0.5"/>
<path id="Rectangle 477" d="M278.25 826.25H279.75V827.75H278.25V826.25Z" stroke="black" stroke-width="0.5"/>
<path id="Rectangle 478" d="M291.25 826.25H292.75V827.75H291.25V826.25Z" stroke="black" stroke-width="0.5"/>
<path id="Rectangle 479" d="M304.25 826.25H305.75V827.75H304.25V826.25Z" stroke="black" stroke-width="0.5"/>
<path id="Rectangle 480" d="M317.25 826.25H318.75V827.75H317.25V826.25Z" stroke="black" stroke-width="0.5"/>
<path id="Rectangle 481" d="M330.25 826.25H331.75V827.75H330.25V826.25Z" stroke="black" stroke-width="0.5"/>
<path id="Rectangle 482" d="M343.25 826.25H344.75V827.75H343.25V826.25Z" stroke="black" stroke-width="0.5"/>
<path id="Rectangle 483" d="M356.25 826.25H357.75V827.75H356.25V826.25Z" stroke="black" stroke-width="0.5"/>
<path id="Rectangle 484" d="M369.25 826.25H370.75V827.75H369.25V826.25Z" stroke="black" stroke-width="0.5"/>
<path id="Rectangle 485" d="M382.25 826.25H383.75V827.75H382.25V826.25Z" stroke="black" stroke-width="0.5"/>
<path id="Rectangle 486" d="M395.25 826.25H396.75V827.75H395.25V826.25Z" stroke="black" stroke-width="0.5"/>
<path id="Rectangle 487" d="M408.25 826.25H409.75V827.75H408.25V826.25Z" stroke="black" stroke-width="0.5"/>
<path id="Rectangle 488" d="M421.25 826.25H422.75V827.75H421.25V826.25Z" stroke="black" stroke-width="0.5"/>
<path id="Rectangle 489" d="M432.25 826.25H433.75V827.75H432.25V826.25Z" stroke="black" stroke-width="0.5"/>
<path id="Rectangle 490" d="M432.25 813.25H433.75V814.75H432.25V813.25Z" stroke="black" stroke-width="0.5"/>
<path id="Rectangle 491" d="M432.25 800.25H433.75V801.75H432.25V800.25Z" stroke="black" stroke-width="0.5"/>
<path id="Rectangle 492" d="M432.25 787.25H433.75V788.75H432.25V787.25Z" stroke="black" stroke-width="0.5"/>
<path id="Rectangle 493" d="M432.25 774.25H433.75V775.75H432.25V774.25Z" stroke="black" stroke-width="0.5"/>
<path id="Rectangle 494" d="M432.25 761.25H433.75V762.75H432.25V761.25Z" stroke="black" stroke-width="0.5"/>
<path id="Rectangle 495" d="M432.25 748.25H433.75V749.75H432.25V748.25Z" stroke="black" stroke-width="0.5"/>
<path id="Rectangle 496" d="M432.25 735.25H433.75V736.75H432.25V735.25Z" stroke="black" stroke-width="0.5"/>
<path id="Rectangle 497" d="M432.25 727.25H433.75V728.75H432.25V727.25Z" stroke="black" stroke-width="0.5"/>
<path id="Rectangle 498" d="M445.25 727.25H446.75V728.75H445.25V727.25Z" stroke="black" stroke-width="0.5"/>
<path id="Rectangle 499" d="M458.25 727.25H459.75V728.75H458.25V727.25Z" stroke="black" stroke-width="0.5"/>
<path id="Rectangle 500" d="M471.25 727.25H472.75V728.75H471.25V727.25Z" stroke="black" stroke-width="0.5"/>
<path id="Rectangle 501" d="M484.25 727.25H485.75V728.75H484.25V727.25Z" stroke="black" stroke-width="0.5"/>
<path id="Rectangle 502" d="M497.25 727.25H498.75V728.75H497.25V727.25Z" stroke="black" stroke-width="0.5"/>
<path id="Rectangle 503" d="M510.25 727.25H511.75V728.75H510.25V727.25Z" stroke="black" stroke-width="0.5"/>
<path id="Rectangle 504" d="M523.25 727.25H524.75V728.75H523.25V727.25Z" stroke="black" stroke-width="0.5"/>
<path id="Rectangle 505" d="M536.25 727.25H537.75V728.75H536.25V727.25Z" stroke="black" stroke-width="0.5"/>
<path id="Rectangle 506" d="M549.25 727.25H550.75V728.75H549.25V727.25Z" stroke="black" stroke-width="0.5"/>
<path id="Rectangle 507" d="M562.25 727.25H563.75V728.75H562.25V727.25Z" stroke="black" stroke-width="0.5"/>
<path id="Rectangle 508" d="M575.25 727.25H576.75V728.75H575.25V727.25Z" stroke="black" stroke-width="0.5"/>
<path id="Rectangle 509" d="M588.25 727.25H589.75V728.75H588.25V727.25Z" stroke="black" stroke-width="0.5"/>
<path id="Rectangle 510" d="M601.25 727.25H602.75V728.75H601.25V727.25Z" stroke="black" stroke-width="0.5"/>
<path id="Rectangle 511" d="M614.25 727.25H615.75V728.75H614.25V727.25Z" stroke="black" stroke-width="0.5"/>
<path id="Rectangle 512" d="M627.25 727.25H628.75V728.75H627.25V727.25Z" stroke="black" stroke-width="0.5"/>
<path id="Rectangle 513" d="M640.25 727.25H641.75V728.75H640.25V727.25Z" stroke="black" stroke-width="0.5"/>
<path id="Rectangle 514" d="M653.25 727.25H654.75V728.75H653.25V727.25Z" stroke="black" stroke-width="0.5"/>
<path id="Rectangle 515" d="M666.25 727.25H667.75V728.75H666.25V727.25Z" stroke="black" stroke-width="0.5"/>
<path id="Rectangle 516" d="M679.25 727.25H680.75V728.75H679.25V727.25Z" stroke="black" stroke-width="0.5"/>
<path id="Rectangle 517" d="M692.25 727.25H693.75V728.75H692.25V727.25Z" stroke="black" stroke-width="0.5"/>
<path id="Rectangle 518" d="M705.25 727.25H706.75V728.75H705.25V727.25Z" stroke="black" stroke-width="0.5"/>
<path id="Rectangle 519" d="M718.25 727.25H719.75V728.75H718.25V727.25Z" stroke="black" stroke-width="0.5"/>
<path id="Rectangle 520" d="M731.25 727.25H732.75V728.75H731.25V727.25Z" stroke="black" stroke-width="0.5"/>
<path id="Rectangle 521" d="M744.25 727.25H745.75V728.75H744.25V727.25Z" stroke="black" stroke-width="0.5"/>
<path id="Rectangle 522" d="M757.25 727.25H758.75V728.75H757.25V727.25Z" stroke="black" stroke-width="0.5"/>
<path id="Rectangle 523" d="M770.25 727.25H771.75V728.75H770.25V727.25Z" stroke="black" stroke-width="0.5"/>
<path id="Rectangle 524" d="M783.25 727.25H784.75V728.75H783.25V727.25Z" stroke="black" stroke-width="0.5"/>
<path id="Rectangle 525" d="M796.25 727.25H797.75V728.75H796.25V727.25Z" stroke="black" stroke-width="0.5"/>
<path id="Rectangle 526" d="M809.25 727.25H810.75V728.75H809.25V727.25Z" stroke="black" stroke-width="0.5"/>
<path id="Rectangle 527" d="M822.25 727.25H823.75V728.75H822.25V727.25Z" stroke="black" stroke-width="0.5"/>
<path id="Rectangle 528" d="M835.25 727.25H836.75V728.75H835.25V727.25Z" stroke="black" stroke-width="0.5"/>
<path id="Rectangle 529" d="M848.25 727.25H849.75V728.75H848.25V727.25Z" stroke="black" stroke-width="0.5"/>
<path id="Rectangle 530" d="M859.25 727.25H860.75V728.75H859.25V727.25Z" stroke="black" stroke-width="0.5"/>
<path id="Rectangle 531" d="M859.25 714.25H860.75V715.75H859.25V714.25Z" stroke="black" stroke-width="0.5"/>
<path id="Rectangle 532" d="M859.25 701.25H860.75V702.75H859.25V701.25Z" stroke="black" stroke-width="0.5"/>
<path id="Rectangle 533" d="M859.25 688.25H860.75V689.75H859.25V688.25Z" stroke="black" stroke-width="0.5"/>
<path id="Rectangle 534" d="M859.25 675.25H860.75V676.75H859.25V675.25Z" stroke="black" stroke-width="0.5"/>
<path id="Rectangle 535" d="M859.25 662.25H860.75V663.75H859.25V662.25Z" stroke="black" stroke-width="0.5"/>
<path id="Rectangle 536" d="M859.25 649.25H860.75V650.75H859.25V649.25Z" stroke="black" stroke-width="0.5"/>
<path id="Rectangle 537" d="M859.25 636.25H860.75V637.75H859.25V636.25Z" stroke="black" stroke-width="0.5"/>
<path id="Rectangle 538" d="M859.25 623.25H860.75V624.75H859.25V623.25Z" stroke="black" stroke-width="0.5"/>
<path id="Rectangle 539" d="M859.25 610.25H860.75V611.75H859.25V610.25Z" stroke="black" stroke-width="0.5"/>
<path id="Rectangle 540" d="M859.25 597.25H860.75V598.75H859.25V597.25Z" stroke="black" stroke-width="0.5"/>
</g>
</g>
</g>
</svg>
